<svg width="120" height="120" viewBox="0 0 120 120" fill="none" xmlns="http://www.w3.org/2000/svg"><g clip-path="url(#clip0)" fill="#0070D2"><path d="M89.9 36.8l-.1-.6-.5-.2c-14.9-5.3-28.8-12.8-29-12.9-.2-.1-.4-.1-.6-.1-.2 0-.5 0-.7.1-.1.1-14.1 7.6-28.9 12.9l-.6.2-.1.6c-.1.5-6.2 46.1 29.7 59.2.1 0 .2.1.3.1.1 0 .2 0 .3-.1C95.6 82.9 90 37.2 89.9 36.8zM59.5 93.9c-31.8-11.8-28.7-51-28.2-56.3C45 32.7 57.7 26.1 59.7 25c2 1 14.7 7.7 28.3 12.6.5 5.3 3.2 44.5-28.5 56.3z"/><path d="M46.4 37.7c-.2-.5-.7-.8-1.3-.6l-9.7 3.2c-.4.1-.7.5-.7.9v6.5c0 .6.4 1 1 1s1-.4 1-1V42l9-3c.6-.3.9-.8.7-1.3zM78.2 73.7c-.5-.2-1.1 0-1.3.4 0 0-1.1 2.1-4.1 5.1-3 3-5.1 4.1-5.1 4.1-.5.2-.7.8-.4 1.3.2.4.5.6.9.6.2 0 .3 0 .4-.1.1 0 2.3-1.2 5.6-4.5s4.4-5.5 4.5-5.6c.2-.5 0-1.1-.5-1.3zM49.8 38c.6 0 1.1-.5 1.1-1.1 0-.6-.5-1.1-1.1-1.1-.6 0-1.1.5-1.1 1.1 0 .6.5 1.1 1.1 1.1zM64.4 84.4c-.5.3-.7.9-.5 1.4.3.5.9.7 1.4.5.5-.2.7-.9.5-1.4-.3-.6-.9-.8-1.4-.5zM77.7 44.8L52 70.4l-8-8c-.4-.4-1-.4-1.4 0-.4.4-.4 1 0 1.4l8.7 8.7c.2.2.5.3.7.3.2 0 .5-.1.7-.3l26.4-26.4c.4-.4.4-1 0-1.4-.4-.4-1-.3-1.4.1z"/></g><defs><clipPath id="clip0"><path fill="#fff" transform="translate(29 23)" d="M0 0h61.3v73H0z"/></clipPath></defs></svg>