<svg width="120" height="120" viewBox="0 0 120 120" fill="none" xmlns="http://www.w3.org/2000/svg"><g clip-path="url(#clip0)" fill="#0070D2"><path d="M36.6 90.6H44c5.6 0 9.4 3.5 9.4 8.7 0 5.2-3.8 8.7-9.5 8.7h-7.3V90.6zm7.2 15.3c4.3 0 7.1-2.6 7.1-6.6 0-3.9-2.8-6.6-7.1-6.6h-4.7v13.1h4.7v.1zM55.6 106.1l.9-1.9c1.3 1.2 3.5 2 5.8 2 3 0 4.3-1.2 4.3-2.7 0-4.3-10.6-1.6-10.6-8.1 0-2.7 2.1-5 6.7-5 2 0 4.2.5 5.6 1.5l-.8 2c-1.5-1-3.2-1.4-4.8-1.4-3 0-4.2 1.2-4.2 2.8 0 4.3 10.6 1.6 10.6 8 0 2.7-2.2 5-6.8 5-2.6-.1-5.3-.9-6.7-2.2zM86.9 96.7c0 3.8-2.7 6.1-7.3 6.1h-4.3v5.2h-2.5V90.6h6.8c4.5 0 7.3 2.3 7.3 6.1zm-2.5 0c0-2.5-1.7-3.9-4.9-3.9h-4.2v7.8h4.2c3.2 0 4.9-1.4 4.9-3.9zM59.5 70.8c-.3 0-.6-.1-.9-.2L35.1 58.1c-.6-.3-1-.9-1-1.6 0-.7.4-1.3 1-1.6l23.5-12.6c.5-.3 1.2-.3 1.7 0l22.8 12.6c.6.3.9.9.9 1.6 0 .7-.4 1.3-.9 1.6L60.4 70.6c-.3.2-.6.2-.9.2zM36.3 56.4l23.2 12.4 22.4-12.4-22.4-12.3-23.2 12.3z"/><path d="M59.5 79.1c-.3 0-.6-.1-.9-.2L35 66.6c-.6-.3-1-.9-1-1.6v-8.5h2v8.4l23.5 12.2L82.1 65v-8.5h2v8.6c0 .7-.4 1.3-1 1.6L60.3 78.9c-.2.2-.5.2-.8.2z"/><path d="M60.4 69.7h-2V78h2v-8.3zM59.6 39.8c-.6 0-1-.4-1-1v-3.5c0-.6.4-1 1-1s1 .4 1 1v3.5c0 .6-.5 1-1 1zM59.6 31c-.6 0-1-.4-1-1V14.9c0-.6.4-1 1-1s1 .4 1 1V30c0 .6-.5 1-1 1z"/><path d="M64.1 19.8c-.3 0-.6-.1-.8-.4l-3.7-4.8-3.7 4.8c-.3.4-1 .5-1.4.2-.4-.3-.5-1-.2-1.4l4.5-5.8c.2-.3.5-.4.8-.4.3 0 .6.1.8.4l4.5 5.8c.3.4.3 1.1-.2 1.4-.2.2-.4.2-.6.2zM45.6 50.8c-.6 0-1-.4-1-1v-3.5c0-.6.4-1 1-1s1 .4 1 1v3.5c0 .6-.5 1-1 1zM45.6 42c-.6 0-1-.4-1-1V25.9c0-.6.4-1 1-1s1 .4 1 1V41c0 .6-.5 1-1 1z"/><path d="M50.1 30.8c-.3 0-.6-.1-.8-.4l-3.7-4.8-3.7 4.8c-.3.4-1 .5-1.4.2-.4-.3-.5-1-.2-1.4l4.5-5.8c.2-.2.5-.4.8-.4.3 0 .6.1.8.4l4.5 5.8c.3.4.3 1.1-.2 1.4-.2.2-.4.2-.6.2zM73.6 50.8c-.6 0-1-.4-1-1v-3.5c0-.6.4-1 1-1s1 .4 1 1v3.5c0 .6-.5 1-1 1zM73.6 42c-.6 0-1-.4-1-1V25.9c0-.6.4-1 1-1s1 .4 1 1V41c0 .6-.5 1-1 1z"/><path d="M78.1 30.8c-.3 0-.6-.1-.8-.4l-3.7-4.8-3.7 4.8c-.3.4-1 .5-1.4.2-.4-.3-.5-1-.2-1.4l4.5-5.8c.2-.2.5-.4.8-.4.3 0 .6.1.8.4l4.5 5.8c.3.4.3 1.1-.2 1.4-.2.2-.4.2-.6.2z"/></g><defs><clipPath id="clip0"><path fill="#fff" transform="translate(34 12)" d="M0 0h52.9v96.2H0z"/></clipPath></defs></svg>