<svg width="162" height="21" viewBox="0 0 162 21" fill="none" xmlns="http://www.w3.org/2000/svg"><path d="M11.004 15.863c0 1.275-.497 2.259-1.49 2.95-.992.692-2.385 1.038-4.178 1.038-1.899 0-3.379-.288-4.44-.863v-1.925c.687.334 1.423.596 2.206.788a9.713 9.713 0 002.286.287c1.132 0 2.002-.17 2.612-.512.61-.35.914-.88.914-1.588 0-.533-.244-.987-.731-1.362-.48-.383-1.42-.834-2.821-1.35-1.332-.475-2.282-.888-2.847-1.238-.558-.358-.976-.762-1.254-1.212-.27-.45-.405-.988-.405-1.613 0-1.117.474-1.996 1.423-2.637.95-.65 2.251-.975 3.905-.975 1.541 0 3.048.3 4.52.9l-.771 1.687c-1.437-.567-2.739-.85-3.905-.85-1.028 0-1.803.154-2.325.463-.522.308-.784.733-.784 1.275 0 .366.096.679.288.937.2.258.518.504.953.738.435.233 1.271.57 2.508 1.012 1.697.592 2.842 1.188 3.434 1.788.601.6.902 1.354.902 2.262z" fill="#fff"/><path d="M11.004 15.863c0 1.275-.497 2.259-1.49 2.95-.992.692-2.385 1.038-4.178 1.038-1.899 0-3.379-.288-4.44-.863v-1.925c.687.334 1.423.596 2.206.788a9.713 9.713 0 002.286.287c1.132 0 2.002-.17 2.612-.512.61-.35.914-.88.914-1.588 0-.533-.244-.987-.731-1.362-.48-.383-1.42-.834-2.821-1.35-1.332-.475-2.282-.888-2.847-1.238-.558-.358-.976-.762-1.254-1.212-.27-.45-.405-.988-.405-1.613 0-1.117.474-1.996 1.423-2.637.95-.65 2.251-.975 3.905-.975 1.541 0 3.048.3 4.52.9l-.771 1.687c-1.437-.567-2.739-.85-3.905-.85-1.028 0-1.803.154-2.325.463-.522.308-.784.733-.784 1.275 0 .366.096.679.288.937.2.258.518.504.953.738.435.233 1.271.57 2.508 1.012 1.697.592 2.842 1.188 3.434 1.788.601.6.902 1.354.902 2.262z" fill="url(#paint0_linear)"/><path d="M32.788 19.6v-8.912c0-1.092-.244-1.908-.732-2.45-.487-.55-1.245-.825-2.272-.825-1.35 0-2.347.37-2.991 1.113-.644.741-.966 1.883-.966 3.425v7.65h-2.168v-8.913c0-1.092-.244-1.908-.732-2.45-.487-.55-1.25-.825-2.285-.825-1.358 0-2.355.392-2.991 1.175-.627.775-.94 2.05-.94 3.825v7.188h-2.168V5.9h1.763l.352 1.875h.105c.41-.667.984-1.188 1.724-1.563.749-.375 1.585-.562 2.507-.562 2.238 0 3.7.775 4.389 2.325h.104c.427-.717 1.045-1.284 1.855-1.7.81-.417 1.732-.625 2.768-.625 1.62 0 2.83.4 3.63 1.2.81.791 1.215 2.062 1.215 3.812v8.938h-2.167z" fill="#fff"/><path d="M32.788 19.6v-8.912c0-1.092-.244-1.908-.732-2.45-.487-.55-1.245-.825-2.272-.825-1.35 0-2.347.37-2.991 1.113-.644.741-.966 1.883-.966 3.425v7.65h-2.168v-8.913c0-1.092-.244-1.908-.732-2.45-.487-.55-1.25-.825-2.285-.825-1.358 0-2.355.392-2.991 1.175-.627.775-.94 2.05-.94 3.825v7.188h-2.168V5.9h1.763l.352 1.875h.105c.41-.667.984-1.188 1.724-1.563.749-.375 1.585-.562 2.507-.562 2.238 0 3.7.775 4.389 2.325h.104c.427-.717 1.045-1.284 1.855-1.7.81-.417 1.732-.625 2.768-.625 1.62 0 2.83.4 3.63 1.2.81.791 1.215 2.062 1.215 3.812v8.938h-2.167z" fill="url(#paint1_linear)"/><path d="M48.237 19.6l-.43-1.95h-.105c-.714.86-1.428 1.443-2.142 1.75-.705.301-1.589.451-2.651.451-1.42 0-2.534-.35-3.343-1.05-.801-.7-1.202-1.696-1.202-2.988 0-2.766 2.312-4.216 6.935-4.35l2.43-.075v-.85c0-1.075-.245-1.867-.732-2.375-.48-.517-1.25-.775-2.312-.775-1.193 0-2.542.35-4.049 1.05l-.666-1.587a10.49 10.49 0 012.312-.863 10.543 10.543 0 012.534-.312c1.706 0 2.969.362 3.787 1.087.827.725 1.24 1.888 1.24 3.488v9.35h-1.606zm-4.897-1.462c1.35 0 2.407-.354 3.173-1.062.775-.709 1.163-1.7 1.163-2.975v-1.238l-2.168.088c-1.724.058-2.97.316-3.735.775-.758.45-1.137 1.154-1.137 2.112 0 .75.236 1.321.706 1.713.479.392 1.145.587 1.998.587z" fill="#fff"/><path d="M48.237 19.6l-.43-1.95h-.105c-.714.86-1.428 1.443-2.142 1.75-.705.301-1.589.451-2.651.451-1.42 0-2.534-.35-3.343-1.05-.801-.7-1.202-1.696-1.202-2.988 0-2.766 2.312-4.216 6.935-4.35l2.43-.075v-.85c0-1.075-.245-1.867-.732-2.375-.48-.517-1.25-.775-2.312-.775-1.193 0-2.542.35-4.049 1.05l-.666-1.587a10.49 10.49 0 012.312-.863 10.543 10.543 0 012.534-.312c1.706 0 2.969.362 3.787 1.087.827.725 1.24 1.888 1.24 3.488v9.35h-1.606zm-4.897-1.462c1.35 0 2.407-.354 3.173-1.062.775-.709 1.163-1.7 1.163-2.975v-1.238l-2.168.088c-1.724.058-2.97.316-3.735.775-.758.45-1.137 1.154-1.137 2.112 0 .75.236 1.321.706 1.713.479.392 1.145.587 1.998.587z" fill="url(#paint2_linear)"/><path d="M60.853 5.65c.636 0 1.206.05 1.711.15l-.3 1.926a7.7 7.7 0 00-1.567-.188c-1.158 0-2.151.45-2.978 1.35-.819.9-1.228 2.021-1.228 3.363v7.35h-2.168V5.9h1.79l.248 2.537h.104c.531-.892 1.171-1.58 1.92-2.062a4.459 4.459 0 012.468-.725z" fill="#fff"/><path d="M60.853 5.65c.636 0 1.206.05 1.711.15l-.3 1.926a7.7 7.7 0 00-1.567-.188c-1.158 0-2.151.45-2.978 1.35-.819.9-1.228 2.021-1.228 3.363v7.35h-2.168V5.9h1.79l.248 2.537h.104c.531-.892 1.171-1.58 1.92-2.062a4.459 4.459 0 012.468-.725z" fill="url(#paint3_linear)"/><path d="M69.865 18.138c.383 0 .753-.025 1.11-.075.357-.058.64-.116.849-.175v1.588c-.235.108-.584.196-1.045.262a7.577 7.577 0 01-1.228.113c-2.769 0-4.153-1.396-4.153-4.188v-8.15h-2.05v-1l2.05-.862.914-2.926h1.254v3.176h4.153v1.612h-4.153v8.063c0 .825.205 1.458.614 1.9.41.442.97.662 1.685.662z" fill="#fff"/><path d="M69.865 18.138c.383 0 .753-.025 1.11-.075.357-.058.64-.116.849-.175v1.588c-.235.108-.584.196-1.045.262a7.577 7.577 0 01-1.228.113c-2.769 0-4.153-1.396-4.153-4.188v-8.15h-2.05v-1l2.05-.862.914-2.926h1.254v3.176h4.153v1.612h-4.153v8.063c0 .825.205 1.458.614 1.9.41.442.97.662 1.685.662z" fill="url(#paint4_linear)"/><path d="M125.36 19.6v-8.862c0-1.117-.266-1.95-.797-2.5s-1.363-.825-2.494-.825c-1.507 0-2.608.392-3.305 1.175-.687.783-1.031 2.067-1.031 3.85v7.163h-2.168V.15h2.168v5.887c0 .708-.035 1.296-.105 1.763h.131c.426-.659 1.032-1.175 1.815-1.55.792-.384 1.694-.575 2.704-.575 1.75 0 3.06.4 3.931 1.2.879.791 1.319 2.054 1.319 3.787v8.938h-2.168z" fill="#fff"/><path d="M125.36 19.6v-8.862c0-1.117-.266-1.95-.797-2.5s-1.363-.825-2.494-.825c-1.507 0-2.608.392-3.305 1.175-.687.783-1.031 2.067-1.031 3.85v7.163h-2.168V.15h2.168v5.887c0 .708-.035 1.296-.105 1.763h.131c.426-.659 1.032-1.175 1.815-1.55.792-.384 1.694-.575 2.704-.575 1.75 0 3.06.4 3.931 1.2.879.791 1.319 2.054 1.319 3.787v8.938h-2.168z" fill="url(#paint5_linear)"/><path d="M134.031 5.9v8.888c0 1.117.266 1.95.797 2.5s1.363.825 2.495.825c1.497 0 2.59-.391 3.278-1.175.696-.783 1.044-2.062 1.044-3.837V5.9h2.168v13.7h-1.789l-.313-1.838h-.118c-.444.675-1.062 1.192-1.854 1.55-.784.359-1.681.538-2.691.538-1.741 0-3.047-.396-3.918-1.188-.862-.791-1.293-2.058-1.293-3.8V5.901h2.194z" fill="#fff"/><path d="M134.031 5.9v8.888c0 1.117.266 1.95.797 2.5s1.363.825 2.495.825c1.497 0 2.59-.391 3.278-1.175.696-.783 1.044-2.062 1.044-3.837V5.9h2.168v13.7h-1.789l-.313-1.838h-.118c-.444.675-1.062 1.192-1.854 1.55-.784.359-1.681.538-2.691.538-1.741 0-3.047-.396-3.918-1.188-.862-.791-1.293-2.058-1.293-3.8V5.901h2.194z" fill="url(#paint6_linear)"/><path d="M155.084 5.676c1.881 0 3.339.616 4.375 1.85 1.045 1.225 1.567 2.962 1.567 5.212 0 2.25-.526 4-1.58 5.25-1.045 1.242-2.499 1.863-4.362 1.863-.932 0-1.785-.163-2.56-.488a4.83 4.83 0 01-1.933-1.525h-.156l-.457 1.763h-1.555V.15h2.168v4.725a34.73 34.73 0 01-.104 2.85h.104c1.01-1.367 2.508-2.05 4.493-2.05zm-.313 1.737c-1.481 0-2.547.408-3.2 1.225-.653.808-.98 2.175-.98 4.1 0 1.925.336 3.305 1.006 4.138.67.825 1.746 1.237 3.226 1.237 1.332 0 2.325-.462 2.978-1.387.653-.933.979-2.271.979-4.013 0-1.783-.326-3.112-.979-3.987s-1.663-1.313-3.03-1.313z" fill="#fff"/><path d="M155.084 5.676c1.881 0 3.339.616 4.375 1.85 1.045 1.225 1.567 2.962 1.567 5.212 0 2.25-.526 4-1.58 5.25-1.045 1.242-2.499 1.863-4.362 1.863-.932 0-1.785-.163-2.56-.488a4.83 4.83 0 01-1.933-1.525h-.156l-.457 1.763h-1.555V.15h2.168v4.725a34.73 34.73 0 01-.104 2.85h.104c1.01-1.367 2.508-2.05 4.493-2.05zm-.313 1.737c-1.481 0-2.547.408-3.2 1.225-.653.808-.98 2.175-.98 4.1 0 1.925.336 3.305 1.006 4.138.67.825 1.746 1.237 3.226 1.237 1.332 0 2.325-.462 2.978-1.387.653-.933.979-2.271.979-4.013 0-1.783-.326-3.112-.979-3.987s-1.663-1.313-3.03-1.313z" fill="url(#paint7_linear)"/><path fill-rule="evenodd" clip-rule="evenodd" d="M104.717 14.676l-5.977 5.72-1.496-1.432 5.926-5.672c.53-.507.847-1.207.847-1.936 0-.737-.306-1.449-.856-1.944l-3.678-3.52a2.875 2.875 0 00-1.972-.797c-.738 0-1.464.28-1.981.806l-5.967 5.71-1.496-1.431 2.662-2.548 3.264-3.124a5.06 5.06 0 013.518-1.4c1.359 0 2.603.5 3.511 1.393l.008.007 3.687 3.53c.941.9 1.447 2.08 1.447 3.318a4.48 4.48 0 01-1.44 3.313l-.007.007zM85.97 17.088l-.007-.007-3.688-3.53a4.59 4.59 0 010-6.664l5.976-5.696 1.497 1.433-5.926 5.673a2.68 2.68 0 000 3.897l3.687 3.53a2.876 2.876 0 001.972.796c.738 0 1.465-.28 1.982-.806l5.967-5.736 1.495 1.43L93 17.082l-.007.007c-.909.892-2.152 1.392-3.511 1.392s-2.603-.5-3.511-1.392z" fill="#fff"/><path fill-rule="evenodd" clip-rule="evenodd" d="M104.717 14.676l-5.977 5.72-1.496-1.432 5.926-5.672c.53-.507.847-1.207.847-1.936 0-.737-.306-1.449-.856-1.944l-3.678-3.52a2.875 2.875 0 00-1.972-.797c-.738 0-1.464.28-1.981.806l-5.967 5.71-1.496-1.431 2.662-2.548 3.264-3.124a5.06 5.06 0 013.518-1.4c1.359 0 2.603.5 3.511 1.393l.008.007 3.687 3.53c.941.9 1.447 2.08 1.447 3.318a4.48 4.48 0 01-1.44 3.313l-.007.007zM85.97 17.088l-.007-.007-3.688-3.53a4.59 4.59 0 010-6.664l5.976-5.696 1.497 1.433-5.926 5.673a2.68 2.68 0 000 3.897l3.687 3.53a2.876 2.876 0 001.972.796c.738 0 1.465-.28 1.982-.806l5.967-5.736 1.495 1.43L93 17.082l-.007.007c-.909.892-2.152 1.392-3.511 1.392s-2.603-.5-3.511-1.392z" fill="url(#paint8_linear)"/><defs><linearGradient id="paint0_linear" x1="80.941" y1=".15" x2="80.941" y2="19.851" gradientUnits="userSpaceOnUse"><stop stop-color="#fff"/><stop offset="1" stop-color="#fff" stop-opacity="0"/></linearGradient><linearGradient id="paint1_linear" x1="80.941" y1=".15" x2="80.941" y2="19.851" gradientUnits="userSpaceOnUse"><stop stop-color="#fff"/><stop offset="1" stop-color="#fff" stop-opacity="0"/></linearGradient><linearGradient id="paint2_linear" x1="80.941" y1=".15" x2="80.941" y2="19.851" gradientUnits="userSpaceOnUse"><stop stop-color="#fff"/><stop offset="1" stop-color="#fff" stop-opacity="0"/></linearGradient><linearGradient id="paint3_linear" x1="80.941" y1=".15" x2="80.941" y2="19.851" gradientUnits="userSpaceOnUse"><stop stop-color="#fff"/><stop offset="1" stop-color="#fff" stop-opacity="0"/></linearGradient><linearGradient id="paint4_linear" x1="80.941" y1=".15" x2="80.941" y2="19.851" gradientUnits="userSpaceOnUse"><stop stop-color="#fff"/><stop offset="1" stop-color="#fff" stop-opacity="0"/></linearGradient><linearGradient id="paint5_linear" x1="80.941" y1=".15" x2="80.941" y2="19.851" gradientUnits="userSpaceOnUse"><stop stop-color="#fff"/><stop offset="1" stop-color="#fff" stop-opacity="0"/></linearGradient><linearGradient id="paint6_linear" x1="80.941" y1=".15" x2="80.941" y2="19.851" gradientUnits="userSpaceOnUse"><stop stop-color="#fff"/><stop offset="1" stop-color="#fff" stop-opacity="0"/></linearGradient><linearGradient id="paint7_linear" x1="80.941" y1=".15" x2="80.941" y2="19.851" gradientUnits="userSpaceOnUse"><stop stop-color="#fff"/><stop offset="1" stop-color="#fff" stop-opacity="0"/></linearGradient><linearGradient id="paint8_linear" x1="93.503" y1="1.191" x2="93.503" y2="20.396" gradientUnits="userSpaceOnUse"><stop stop-color="#fff"/><stop offset="1" stop-color="#fff" stop-opacity="0"/></linearGradient></defs></svg>