<svg width="120" height="120" viewBox="0 0 120 120" fill="none" xmlns="http://www.w3.org/2000/svg"><g clip-path="url(#clip0)"><path d="M31.45 98.077c0-5.798 4.35-9.923 10.372-9.923 3.011 0 5.576 1.003 7.36 3.01l-1.784 1.784c-1.45-1.56-3.346-2.341-5.465-2.341-4.349 0-7.695 3.121-7.695 7.47 0 4.348 3.234 7.47 7.696 7.47 2.118 0 4.014-.781 5.464-2.341l1.784 1.783C47.398 106.996 44.834 108 41.71 108c-5.799 0-10.26-4.126-10.26-9.923z" fill="#fff"/><path d="M31.45 98.077c0-5.798 4.35-9.923 10.372-9.923 3.011 0 5.576 1.003 7.36 3.01l-1.784 1.784c-1.45-1.56-3.346-2.341-5.465-2.341-4.349 0-7.695 3.121-7.695 7.47 0 4.348 3.234 7.47 7.696 7.47 2.118 0 4.014-.781 5.464-2.341l1.784 1.783C47.398 106.996 44.834 108 41.71 108c-5.799 0-10.26-4.126-10.26-9.923z" fill="url(#paint0_linear)"/><path d="M69.034 95.066c0 4.237-3.011 6.801-8.141 6.801h-4.796v5.91H53.31V88.265h7.584c5.018 0 8.14 2.564 8.14 6.801zm-2.788 0c0-2.787-1.896-4.348-5.465-4.348h-4.684v8.697h4.684c3.569.111 5.465-1.561 5.465-4.349z" fill="#fff"/><path d="M69.034 95.066c0 4.237-3.011 6.801-8.141 6.801h-4.796v5.91H53.31V88.265h7.584c5.018 0 8.14 2.564 8.14 6.801zm-2.788 0c0-2.787-1.896-4.348-5.465-4.348h-4.684v8.697h4.684c3.569.111 5.465-1.561 5.465-4.349z" fill="url(#paint1_linear)"/><path d="M71.822 98.077c0-5.798 4.35-9.923 10.372-9.923 3.01 0 5.576 1.003 7.36 3.01l-1.784 1.784c-1.45-1.56-3.346-2.341-5.465-2.341-4.35 0-7.695 3.121-7.695 7.47 0 4.348 3.234 7.47 7.695 7.47 2.12 0 4.015-.781 5.465-2.341l1.784 1.783c-1.784 2.007-4.35 3.011-7.472 3.011-5.91 0-10.26-4.126-10.26-9.923z" fill="#fff"/><path d="M71.822 98.077c0-5.798 4.35-9.923 10.372-9.923 3.01 0 5.576 1.003 7.36 3.01l-1.784 1.784c-1.45-1.56-3.346-2.341-5.465-2.341-4.35 0-7.695 3.121-7.695 7.47 0 4.348 3.234 7.47 7.695 7.47 2.12 0 4.015-.781 5.465-2.341l1.784 1.783c-1.784 2.007-4.35 3.011-7.472 3.011-5.91 0-10.26-4.126-10.26-9.923z" fill="url(#paint2_linear)"/><path d="M70.372 70.984h-.223c-.335-.112-.67-.335-.78-.558L50.966 32.741a1.185 1.185 0 01.223-1.337 1.186 1.186 0 011.338-.224l36.803 19.066a.838.838 0 01.558.78c0 .335-.112.67-.335 1.004l-5.13 5.129 4.238 4.236c.223.223.335.446.335.78 0 .335-.112.558-.335.781l-6.691 6.69a1.078 1.078 0 01-1.562 0l-4.238-4.237-5.13 5.129c-.111.334-.334.446-.669.446zM54.536 34.86l16.17 33.114 4.796-4.795a1.078 1.078 0 011.562 0l4.238 4.237 5.13-5.129-4.238-4.236c-.223-.223-.335-.446-.335-.78 0-.335.112-.558.335-.781l4.795-4.795L54.536 34.86z" fill="#fff"/><path d="M70.372 70.984h-.223c-.335-.112-.67-.335-.78-.558L50.966 32.741a1.185 1.185 0 01.223-1.337 1.186 1.186 0 011.338-.224l36.803 19.066a.838.838 0 01.558.78c0 .335-.112.67-.335 1.004l-5.13 5.129 4.238 4.236c.223.223.335.446.335.78 0 .335-.112.558-.335.781l-6.691 6.69a1.078 1.078 0 01-1.562 0l-4.238-4.237-5.13 5.129c-.111.334-.334.446-.669.446zM54.536 34.86l16.17 33.114 4.796-4.795a1.078 1.078 0 011.562 0l4.238 4.237 5.13-5.129-4.238-4.236c-.223-.223-.335-.446-.335-.78 0-.335.112-.558.335-.781l4.795-4.795L54.536 34.86z" fill="url(#paint3_linear)"/><path d="M55.986 63.18c-6.803 0-13.495-2.677-18.402-7.582C32.677 50.58 30 44.002 30 37.09c0-6.913 2.677-13.491 7.584-18.397C42.603 13.676 49.071 11 56.097 11c7.026 0 13.494 2.676 18.402 7.693 6.022 6.02 8.698 14.606 7.249 22.968a1.157 1.157 0 01-1.339.892 1.157 1.157 0 01-.892-1.338c1.338-7.693-1.115-15.498-6.58-20.961-4.46-4.46-10.483-7.024-16.84-7.024-6.357 0-12.38 2.453-16.84 7.024-4.461 4.46-7.026 10.48-7.026 16.836 0 6.355 2.453 12.375 7.026 16.835 5.688 5.687 13.829 8.14 21.636 6.467.557-.111 1.226.223 1.338.892.111.557-.223 1.226-.892 1.338-1.785.334-3.57.557-5.353.557z" fill="#fff"/><path d="M55.986 63.18c-6.803 0-13.495-2.677-18.402-7.582C32.677 50.58 30 44.002 30 37.09c0-6.913 2.677-13.491 7.584-18.397C42.603 13.676 49.071 11 56.097 11c7.026 0 13.494 2.676 18.402 7.693 6.022 6.02 8.698 14.606 7.249 22.968a1.157 1.157 0 01-1.339.892 1.157 1.157 0 01-.892-1.338c1.338-7.693-1.115-15.498-6.58-20.961-4.46-4.46-10.483-7.024-16.84-7.024-6.357 0-12.38 2.453-16.84 7.024-4.461 4.46-7.026 10.48-7.026 16.836 0 6.355 2.453 12.375 7.026 16.835 5.688 5.687 13.829 8.14 21.636 6.467.557-.111 1.226.223 1.338.892.111.557-.223 1.226-.892 1.338-1.785.334-3.57.557-5.353.557z" fill="url(#paint4_linear)"/><path d="M56.097 54.817c-4.684 0-9.145-1.895-12.49-5.24-6.692-6.69-7.027-17.393-.67-24.417l.67-.67c.557-.557 1.338-1.226 2.007-1.783 7.137-5.24 16.84-4.46 23.085 1.784 3.457 3.456 5.242 8.027 5.242 12.822 0 .557-.558 1.115-1.115 1.115-.67 0-1.116-.558-1.116-1.115a14.887 14.887 0 00-4.572-11.15c-5.465-5.463-13.94-6.132-20.186-1.56-.67.445-1.227 1.003-1.784 1.56l-.558.558c-5.576 6.132-5.353 15.497.558 21.407 3.234 3.233 7.583 4.794 12.156 4.46.669 0 1.115.445 1.227 1.003.111.557-.447 1.115-1.004 1.226h-1.45z" fill="#fff"/><path d="M56.097 54.817c-4.684 0-9.145-1.895-12.49-5.24-6.692-6.69-7.027-17.393-.67-24.417l.67-.67c.557-.557 1.338-1.226 2.007-1.783 7.137-5.24 16.84-4.46 23.085 1.784 3.457 3.456 5.242 8.027 5.242 12.822 0 .557-.558 1.115-1.115 1.115-.67 0-1.116-.558-1.116-1.115a14.887 14.887 0 00-4.572-11.15c-5.465-5.463-13.94-6.132-20.186-1.56-.67.445-1.227 1.003-1.784 1.56l-.558.558c-5.576 6.132-5.353 15.497.558 21.407 3.234 3.233 7.583 4.794 12.156 4.46.669 0 1.115.445 1.227 1.003.111.557-.447 1.115-1.004 1.226h-1.45z" fill="url(#paint5_linear)"/></g><defs><linearGradient id="paint0_linear" x1="40.316" y1="88.154" x2="40.316" y2="108" gradientUnits="userSpaceOnUse"><stop stop-color="#fff"/><stop offset="1" stop-color="#fff" stop-opacity="0"/></linearGradient><linearGradient id="paint1_linear" x1="61.171" y1="88.265" x2="61.171" y2="107.777" gradientUnits="userSpaceOnUse"><stop stop-color="#fff"/><stop offset="1" stop-color="#fff" stop-opacity="0"/></linearGradient><linearGradient id="paint2_linear" x1="80.688" y1="88.154" x2="80.688" y2="108" gradientUnits="userSpaceOnUse"><stop stop-color="#fff"/><stop offset="1" stop-color="#fff" stop-opacity="0"/></linearGradient><linearGradient id="paint3_linear" x1="70.37" y1="31.064" x2="70.37" y2="70.984" gradientUnits="userSpaceOnUse"><stop stop-color="#fff"/><stop offset="1" stop-color="#fff" stop-opacity="0"/></linearGradient><linearGradient id="paint4_linear" x1="56.067" y1="11" x2="56.067" y2="63.179" gradientUnits="userSpaceOnUse"><stop stop-color="#fff"/><stop offset="1" stop-color="#fff" stop-opacity="0"/></linearGradient><linearGradient id="paint5_linear" x1="56.156" y1="19.239" x2="56.156" y2="54.817" gradientUnits="userSpaceOnUse"><stop stop-color="#fff"/><stop offset="1" stop-color="#fff" stop-opacity="0"/></linearGradient><clipPath id="clip0"><path fill="#fff" transform="translate(30 11)" d="M0 0h60v97H0z"/></clipPath></defs></svg>