<svg width="120" height="120" viewBox="0 0 120 120" fill="none" xmlns="http://www.w3.org/2000/svg"><path fill-rule="evenodd" clip-rule="evenodd" d="M64.648 23.094c7.482.853 13.799 3.815 19.256 9.032l-21.961 22.09 2.705-31.122zM60.295 57.77a.991.991 0 001.123-.198L86.02 32.823a1.002 1.002 0 000-1.413c-6.197-6.234-13.455-9.637-22.186-10.406a.988.988 0 00-.726.23c-.201.17-.327.415-.351.678l-3.032 34.865c-.035.418.192.815.57.992z" fill="#fff"/><path fill-rule="evenodd" clip-rule="evenodd" d="M64.648 23.094c7.482.853 13.799 3.815 19.256 9.032l-21.961 22.09 2.705-31.122zM60.295 57.77a.991.991 0 001.123-.198L86.02 32.823a1.002 1.002 0 000-1.413c-6.197-6.234-13.455-9.637-22.186-10.406a.988.988 0 00-.726.23c-.201.17-.327.415-.351.678l-3.032 34.865c-.035.418.192.815.57.992z" fill="url(#paint0_linear)"/><path fill-rule="evenodd" clip-rule="evenodd" d="M87.901 70.102c-.006-.032-.027-.058-.037-.089a.984.984 0 00-.743-.687L57.47 63.427a.998.998 0 00-.387 1.96l28.655 5.7C81.864 88.235 65.534 99.653 48.09 97.184 39.15 95.92 31.234 91.23 25.8 83.978c-5.433-7.252-7.733-16.2-6.476-25.193a33.973 33.973 0 0115.482-24.04c6.008-3.81 12.883-5.588 19.944-5.17l-1.397 16.057L52.07 60.38a.998.998 0 00.99 1.087c.51 0 .943-.393.988-.912l1.204-13.82v-.002l1.564-17.993a.997.997 0 00-.902-1.082c-7.844-.69-15.505 1.177-22.167 5.397a35.981 35.981 0 00-16.392 25.452c-1.329 9.522 1.105 18.996 6.858 26.673 5.755 7.681 14.135 12.647 23.6 13.983 1.688.239 3.363.356 5.02.356 16.839 0 31.732-11.964 35.071-29.02a.96.96 0 00-.003-.353c-.001-.015.003-.03 0-.043z" fill="#fff"/><path fill-rule="evenodd" clip-rule="evenodd" d="M87.901 70.102c-.006-.032-.027-.058-.037-.089a.984.984 0 00-.743-.687L57.47 63.427a.998.998 0 00-.387 1.96l28.655 5.7C81.864 88.235 65.534 99.653 48.09 97.184 39.15 95.92 31.234 91.23 25.8 83.978c-5.433-7.252-7.733-16.2-6.476-25.193a33.973 33.973 0 0115.482-24.04c6.008-3.81 12.883-5.588 19.944-5.17l-1.397 16.057L52.07 60.38a.998.998 0 00.99 1.087c.51 0 .943-.393.988-.912l1.204-13.82v-.002l1.564-17.993a.997.997 0 00-.902-1.082c-7.844-.69-15.505 1.177-22.167 5.397a35.981 35.981 0 00-16.392 25.452c-1.329 9.522 1.105 18.996 6.858 26.673 5.755 7.681 14.135 12.647 23.6 13.983 1.688.239 3.363.356 5.02.356 16.839 0 31.732-11.964 35.071-29.02a.96.96 0 00-.003-.353c-.001-.015.003-.03 0-.043z" fill="url(#paint1_linear)"/><path fill-rule="evenodd" clip-rule="evenodd" d="M101.555 62.785l-31.487-4.45 22.483-22.616c7.07 7.488 10.171 16.806 9.004 27.066zM93.263 33.59a1.018 1.018 0 00-1.404 0L67.257 58.338a.998.998 0 00-.24 1.023c.119.36.43.621.802.673l34.456 4.87a.982.982 0 00.736-.19 1.01 1.01 0 00.387-.66c1.622-11.626-1.881-22.16-10.135-30.464z" fill="#fff"/><path fill-rule="evenodd" clip-rule="evenodd" d="M101.555 62.785l-31.487-4.45 22.483-22.616c7.07 7.488 10.171 16.806 9.004 27.066zM93.263 33.59a1.018 1.018 0 00-1.404 0L67.257 58.338a.998.998 0 00-.24 1.023c.119.36.43.621.802.673l34.456 4.87a.982.982 0 00.736-.19 1.01 1.01 0 00.387-.66c1.622-11.626-1.881-22.16-10.135-30.464z" fill="url(#paint2_linear)"/><defs><linearGradient id="paint0_linear" x1="73.016" y1="21" x2="73.016" y2="57.864" gradientUnits="userSpaceOnUse"><stop stop-color="#fff"/><stop offset="1" stop-color="#fff" stop-opacity="0"/></linearGradient><linearGradient id="paint1_linear" x1="52.46" y1="27.517" x2="52.46" y2="99.518" gradientUnits="userSpaceOnUse"><stop stop-color="#fff"/><stop offset="1" stop-color="#fff" stop-opacity="0"/></linearGradient><linearGradient id="paint2_linear" x1="85.375" y1="33.31" x2="85.375" y2="64.915" gradientUnits="userSpaceOnUse"><stop stop-color="#fff"/><stop offset="1" stop-color="#fff" stop-opacity="0"/></linearGradient></defs></svg>