<svg width="120" height="120" viewBox="0 0 120 120" fill="none" xmlns="http://www.w3.org/2000/svg"><path d="M48.081 75.853c.148.147.296.147.59.147.296 0 .444 0 .591-.147l25.536-14.706c.295-.147.59-.588.59-.882 0-.441-.147-.735-.59-.882L49.262 44.677c-.295-.147-.738-.147-1.18 0-.296.147-.591.588-.591.882v29.265c0 .588.295.882.59 1.03zm1.624-28.235l22.14 12.794-22.14 12.794V47.618z" fill="#fff"/><path d="M48.081 75.853c.148.147.296.147.59.147.296 0 .444 0 .591-.147l25.536-14.706c.295-.147.59-.588.59-.882 0-.441-.147-.735-.59-.882L49.262 44.677c-.295-.147-.738-.147-1.18 0-.296.147-.591.588-.591.882v29.265c0 .588.295.882.59 1.03zm1.624-28.235l22.14 12.794-22.14 12.794V47.618z" fill="url(#paint0_linear)"/><path d="M105.057 21H11.181c-.59 0-1.18.442-1.18 1.177v72.794c0 .588.442 1.177 1.18 1.177.59 0 1.181-.441 1.181-1.177V23.206h91.662v71.765c0 .588.443 1.177 1.181 1.177.59 0 1.181-.441 1.181-1.177V22.177c-.295-.735-.738-1.177-1.329-1.177z" fill="#fff"/><path d="M105.057 21H11.181c-.59 0-1.18.442-1.18 1.177v72.794c0 .588.442 1.177 1.18 1.177.59 0 1.181-.441 1.181-1.177V23.206h91.662v71.765c0 .588.443 1.177 1.181 1.177.59 0 1.181-.441 1.181-1.177V22.177c-.295-.735-.738-1.177-1.329-1.177z" fill="url(#paint1_linear)"/><path d="M96.938 93.795H48.672c-.59 0-1.181.441-1.181 1.176 0 .589.443 1.177 1.18 1.177h48.267c.59 0 1.181-.441 1.181-1.177 0-.588-.59-1.176-1.18-1.176z" fill="#fff"/><path d="M96.938 93.795H48.672c-.59 0-1.181.441-1.181 1.176 0 .589.443 1.177 1.18 1.177h48.267c.59 0 1.181-.441 1.181-1.177 0-.588-.59-1.176-1.18-1.176z" fill="url(#paint2_linear)"/><path d="M35.978 88.942c-2.953 0-5.314 2.059-5.905 4.853h-11.07c-.59 0-1.18.441-1.18 1.176 0 .588.442 1.177 1.18 1.177h10.923c.59 2.794 2.952 4.853 5.904 4.853 3.247 0 6.052-2.647 6.052-6.03 0-3.382-2.657-6.03-5.904-6.03zm0 9.706c-2.067 0-3.838-1.765-3.838-3.824s1.771-3.823 3.838-3.823c2.066 0 3.837 1.764 3.837 3.823-.147 2.206-1.771 3.824-3.837 3.824z" fill="#fff"/><path d="M35.978 88.942c-2.953 0-5.314 2.059-5.905 4.853h-11.07c-.59 0-1.18.441-1.18 1.176 0 .588.442 1.177 1.18 1.177h10.923c.59 2.794 2.952 4.853 5.904 4.853 3.247 0 6.052-2.647 6.052-6.03 0-3.382-2.657-6.03-5.904-6.03zm0 9.706c-2.067 0-3.838-1.765-3.838-3.824s1.771-3.823 3.838-3.823c2.066 0 3.837 1.764 3.837 3.823-.147 2.206-1.771 3.824-3.837 3.824z" fill="url(#paint3_linear)"/><path d="M48.081 75.853c.148.147.296.147.59.147.296 0 .444 0 .591-.147l25.536-14.706c.295-.147.59-.588.59-.882 0-.441-.147-.735-.59-.882L49.262 44.677c-.295-.147-.738-.147-1.18 0-.296.147-.591.588-.591.882v29.265c0 .588.295.882.59 1.03zm1.624-28.235l22.14 12.794-22.14 12.794V47.618z" fill="#fff"/><path d="M48.081 75.853c.148.147.296.147.59.147.296 0 .444 0 .591-.147l25.536-14.706c.295-.147.59-.588.59-.882 0-.441-.147-.735-.59-.882L49.262 44.677c-.295-.147-.738-.147-1.18 0-.296.147-.591.588-.591.882v29.265c0 .588.295.882.59 1.03zm1.624-28.235l22.14 12.794-22.14 12.794V47.618z" fill="url(#paint4_linear)"/><path d="M105.057 21H11.181c-.59 0-1.18.442-1.18 1.177v72.794c0 .588.442 1.177 1.18 1.177.59 0 1.181-.441 1.181-1.177V23.206h91.662v71.765c0 .588.443 1.177 1.181 1.177.59 0 1.181-.441 1.181-1.177V22.177c-.295-.735-.738-1.177-1.329-1.177z" fill="#fff"/><path d="M105.057 21H11.181c-.59 0-1.18.442-1.18 1.177v72.794c0 .588.442 1.177 1.18 1.177.59 0 1.181-.441 1.181-1.177V23.206h91.662v71.765c0 .588.443 1.177 1.181 1.177.59 0 1.181-.441 1.181-1.177V22.177c-.295-.735-.738-1.177-1.329-1.177z" fill="url(#paint5_linear)"/><path d="M96.938 93.795H48.672c-.59 0-1.181.441-1.181 1.176 0 .589.443 1.177 1.18 1.177h48.267c.59 0 1.181-.441 1.181-1.177 0-.588-.59-1.176-1.18-1.176z" fill="#fff"/><path d="M96.938 93.795H48.672c-.59 0-1.181.441-1.181 1.176 0 .589.443 1.177 1.18 1.177h48.267c.59 0 1.181-.441 1.181-1.177 0-.588-.59-1.176-1.18-1.176z" fill="url(#paint6_linear)"/><path d="M35.978 88.942c-2.953 0-5.314 2.059-5.905 4.853h-11.07c-.59 0-1.18.441-1.18 1.176 0 .588.442 1.177 1.18 1.177h10.923c.59 2.794 2.952 4.853 5.904 4.853 3.247 0 6.052-2.647 6.052-6.03 0-3.382-2.657-6.03-5.904-6.03zm0 9.706c-2.067 0-3.838-1.765-3.838-3.824s1.771-3.823 3.838-3.823c2.066 0 3.837 1.764 3.837 3.823-.147 2.206-1.771 3.824-3.837 3.824z" fill="#fff"/><path d="M35.978 88.942c-2.953 0-5.314 2.059-5.905 4.853h-11.07c-.59 0-1.18.441-1.18 1.176 0 .588.442 1.177 1.18 1.177h10.923c.59 2.794 2.952 4.853 5.904 4.853 3.247 0 6.052-2.647 6.052-6.03 0-3.382-2.657-6.03-5.904-6.03zm0 9.706c-2.067 0-3.838-1.765-3.838-3.824s1.771-3.823 3.838-3.823c2.066 0 3.837 1.764 3.837 3.823-.147 2.206-1.771 3.824-3.837 3.824z" fill="url(#paint7_linear)"/><defs><linearGradient id="paint0_linear" x1="61.44" y1="44.566" x2="61.44" y2="76" gradientUnits="userSpaceOnUse"><stop stop-color="#fff"/><stop offset="1" stop-color="#fff" stop-opacity="0"/></linearGradient><linearGradient id="paint1_linear" x1="58.193" y1="21" x2="58.193" y2="96.148" gradientUnits="userSpaceOnUse"><stop stop-color="#fff"/><stop offset="1" stop-color="#fff" stop-opacity="0"/></linearGradient><linearGradient id="paint2_linear" x1="72.805" y1="93.795" x2="72.805" y2="96.148" gradientUnits="userSpaceOnUse"><stop stop-color="#fff"/><stop offset="1" stop-color="#fff" stop-opacity="0"/></linearGradient><linearGradient id="paint3_linear" x1="29.852" y1="88.942" x2="29.852" y2="101.001" gradientUnits="userSpaceOnUse"><stop stop-color="#fff"/><stop offset="1" stop-color="#fff" stop-opacity="0"/></linearGradient><linearGradient id="paint4_linear" x1="61.44" y1="44.566" x2="61.44" y2="76" gradientUnits="userSpaceOnUse"><stop stop-color="#fff"/><stop offset="1" stop-color="#fff" stop-opacity="0"/></linearGradient><linearGradient id="paint5_linear" x1="58.193" y1="21" x2="58.193" y2="96.148" gradientUnits="userSpaceOnUse"><stop stop-color="#fff"/><stop offset="1" stop-color="#fff" stop-opacity="0"/></linearGradient><linearGradient id="paint6_linear" x1="72.805" y1="93.795" x2="72.805" y2="96.148" gradientUnits="userSpaceOnUse"><stop stop-color="#fff"/><stop offset="1" stop-color="#fff" stop-opacity="0"/></linearGradient><linearGradient id="paint7_linear" x1="29.852" y1="88.942" x2="29.852" y2="101.001" gradientUnits="userSpaceOnUse"><stop stop-color="#fff"/><stop offset="1" stop-color="#fff" stop-opacity="0"/></linearGradient></defs></svg>