<svg width="65" height="65" viewBox="0 0 65 65" fill="none" xmlns="http://www.w3.org/2000/svg"><path fill-rule="evenodd" clip-rule="evenodd" d="M24.32 11.375h33.138c.323 0 .565.322.565.645v32.574a.551.551 0 01-.565.565l-22.576-.161v7.498h11.852c.323 0 .565.242.565.565a.551.551 0 01-.565.564H17.87a.551.551 0 01-.564-.564c0-.323.241-.565.564-.565H29.72v-4.193c0-.322.242-.564.565-.564.322 0 .564.242.564.564v4.193h2.822v-7.498H7.065a.551.551 0 01-.565-.565V11.94c0-.322.242-.564.565-.564h17.254zm32.555 1.083H7.583v31.417h49.292V12.458z" fill="#fff"/><path fill-rule="evenodd" clip-rule="evenodd" d="M24.32 11.375h33.138c.323 0 .565.322.565.645v32.574a.551.551 0 01-.565.565l-22.576-.161v7.498h11.852c.323 0 .565.242.565.565a.551.551 0 01-.565.564H17.87a.551.551 0 01-.564-.564c0-.323.241-.565.564-.565H29.72v-4.193c0-.322.242-.564.565-.564.322 0 .564.242.564.564v4.193h2.822v-7.498H7.065a.551.551 0 01-.565-.565V11.94c0-.322.242-.564.565-.564h17.254zm32.555 1.083H7.583v31.417h49.292V12.458z" fill="url(#paint0_linear)"/><path fill="#fff" d="M7.583 40.625h49.292v1.083H7.583z"/><path fill="url(#paint1_linear)" d="M7.583 40.625h49.292v1.083H7.583z"/><defs><linearGradient id="paint0_linear" x1="32.261" y1="11.375" x2="32.261" y2="53.625" gradientUnits="userSpaceOnUse"><stop stop-color="#fff"/><stop offset="1" stop-color="#fff" stop-opacity="0"/></linearGradient><linearGradient id="paint1_linear" x1="32.229" y1="40.625" x2="32.229" y2="41.708" gradientUnits="userSpaceOnUse"><stop stop-color="#fff"/><stop offset="1" stop-color="#fff" stop-opacity="0"/></linearGradient></defs></svg>