<svg width="120" height="120" viewBox="0 0 120 120" fill="none" xmlns="http://www.w3.org/2000/svg"><g clip-path="url(#clip0)" fill="#0070D2"><path d="M36.5 106.1l.9-1.9c1.3 1.2 3.5 2 5.8 2 3 0 4.3-1.2 4.3-2.7 0-4.3-10.6-1.6-10.6-8.1 0-2.7 2.1-5 6.7-5 2 0 4.2.5 5.6 1.5l-.8 2c-1.5-1-3.2-1.4-4.8-1.4-3 0-4.2 1.2-4.2 2.8 0 4.3 10.6 1.6 10.6 8 0 2.7-2.1 5-6.8 5-2.6-.1-5.3-.9-6.7-2.2zM52.1 106.1l.9-1.9c1.3 1.2 3.5 2 5.8 2 3 0 4.3-1.2 4.3-2.7 0-4.3-10.6-1.6-10.6-8.1 0-2.7 2.1-5 6.7-5 2 0 4.2.5 5.6 1.5l-.8 2c-1.5-1-3.2-1.4-4.8-1.4-3 0-4.2 1.2-4.2 2.8 0 4.3 10.6 1.6 10.6 8 0 2.7-2.2 5-6.8 5-2.7-.1-5.3-.9-6.7-2.2zM83.3 96.7c0 3.8-2.7 6.1-7.3 6.1h-4.3v5.2h-2.5V90.6H76c4.6 0 7.3 2.3 7.3 6.1zm-2.5 0c0-2.5-1.7-3.9-4.9-3.9h-4.2v7.8h4.2c3.2 0 4.9-1.4 4.9-3.9zM60.5 70.8c-.3 0-.6-.1-.9-.2L36.1 58.1c-.6-.3-1-.9-1-1.6 0-.7.4-1.3 1-1.6l23.5-12.6c.5-.3 1.2-.3 1.7 0l22.8 12.6c.6.3.9.9.9 1.6 0 .7-.4 1.3-.9 1.6L61.4 70.6c-.3.2-.6.2-.9.2zM37.3 56.4l23.2 12.4 22.4-12.4-22.4-12.3-23.2 12.3z"/><path d="M60.5 79.1c-.3 0-.6-.1-.9-.2L36 66.6c-.6-.3-1-.9-1-1.6v-8.5h2v8.4l23.5 12.2L83.1 65v-8.5h2v8.6c0 .7-.4 1.3-1 1.6L61.3 78.9c-.2.2-.5.2-.8.2z"/><path d="M61.4 69.7h-2V78h2v-8.3zM60.5 17.5c-.6 0-1-.4-1-1V13c0-.6.4-1 1-1s1 .4 1 1v3.5c0 .5-.4 1-1 1zM60.5 37.9c-.6 0-1-.4-1-1V21.8c0-.6.4-1 1-1s1 .4 1 1v15.1c0 .5-.4 1-1 1z"/><path d="M60.6 39.8c-.3 0-.6-.1-.8-.4l-4.5-5.8c-.3-.4-.3-1.1.2-1.4.4-.3 1.1-.3 1.4.2l3.7 4.8 3.7-4.8c.3-.4 1-.5 1.4-.2.4.3.5 1 .2 1.4l-4.5 5.8c-.2.3-.5.4-.8.4zM74.5 26.5c-.6 0-1-.4-1-1V22c0-.6.4-1 1-1s1 .4 1 1v3.5c0 .5-.4 1-1 1zM74.5 46.9c-.6 0-1-.4-1-1V30.8c0-.6.4-1 1-1s1 .4 1 1v15.1c0 .5-.4 1-1 1z"/><path d="M74.6 48.8c-.3 0-.6-.1-.8-.4l-4.5-5.8c-.3-.4-.3-1.1.2-1.4.4-.3 1.1-.3 1.4.2l3.7 4.8 3.7-4.8c.3-.4 1-.5 1.4-.2.4.3.5 1 .2 1.4l-4.5 5.8c-.2.3-.5.4-.8.4zM46.5 26.5c-.6 0-1-.4-1-1V22c0-.6.4-1 1-1s1 .4 1 1v3.5c0 .5-.4 1-1 1zM46.5 46.9c-.6 0-1-.4-1-1V30.8c0-.6.4-1 1-1s1 .4 1 1v15.1c0 .5-.4 1-1 1z"/><path d="M46.6 48.8c-.3 0-.6-.1-.8-.4l-4.5-5.8c-.3-.4-.3-1.1.2-1.4.4-.3 1.1-.3 1.4.2l3.7 4.8 3.7-4.8c.3-.4 1-.5 1.4-.2.4.3.5 1 .2 1.4l-4.5 5.8c-.2.3-.5.4-.8.4z"/></g><defs><clipPath id="clip0"><path fill="#fff" transform="translate(35 12)" d="M0 0h50.1v96.2H0z"/></clipPath></defs></svg>