<svg width="120" height="120" viewBox="0 0 120 120" fill="none" xmlns="http://www.w3.org/2000/svg"><path fill-rule="evenodd" clip-rule="evenodd" d="M19.423 25.225C18.405 23.911 19.341 22 21.004 22H99.96c1.65 0 2.59 1.885 1.598 3.203L69.463 67.834V87.48a2 2 0 01-.853 1.639l-13 9.1c-1.325.928-3.146-.02-3.146-1.639V67.842l-33.04-42.617zM99.96 24H21.004l10.079 13h35.88a1 1 0 010 2h-34.33l21.411 27.617a2 2 0 01.42 1.225V96.58l13-9.1V67.834a2 2 0 01.402-1.203L99.959 24zM74.463 38a1 1 0 011-1h4a1 1 0 010 2h-4a1 1 0 01-1-1z" fill="#fff"/><path fill-rule="evenodd" clip-rule="evenodd" d="M19.423 25.225C18.405 23.911 19.341 22 21.004 22H99.96c1.65 0 2.59 1.885 1.598 3.203L69.463 67.834V87.48a2 2 0 01-.853 1.639l-13 9.1c-1.325.928-3.146-.02-3.146-1.639V67.842l-33.04-42.617zM99.96 24H21.004l10.079 13h35.88a1 1 0 010 2h-34.33l21.411 27.617a2 2 0 01.42 1.225V96.58l13-9.1V67.834a2 2 0 01.402-1.203L99.959 24zM74.463 38a1 1 0 011-1h4a1 1 0 010 2h-4a1 1 0 01-1-1z" fill="url(#paint0_linear)"/><defs><linearGradient id="paint0_linear" x1="60.481" y1="22" x2="60.481" y2="98.583" gradientUnits="userSpaceOnUse"><stop stop-color="#fff"/><stop offset="1" stop-color="#fff" stop-opacity="0"/></linearGradient></defs></svg>