<svg width="120" height="120" viewBox="0 0 120 120" fill="none" xmlns="http://www.w3.org/2000/svg"><path d="M66.129 85.743h-.218a6.765 6.765 0 00-6.683-5.742h-35.81c-3.383 0-6.191 2.499-6.683 5.742h-.218a5.66 5.66 0 00-5.658 5.658v.148a5.657 5.657 0 005.652 5.65h49.61a5.657 5.657 0 005.652-5.65V91.4a5.648 5.648 0 00-5.644-5.658zm-42.71-3.819h35.81a4.833 4.833 0 014.724 3.819h-45.26a4.84 4.84 0 014.725-3.819zm46.438 9.625a3.73 3.73 0 01-3.728 3.727H16.51a3.73 3.73 0 01-3.727-3.727V91.4a3.73 3.73 0 013.728-3.727h.8c.098.035.203.049.309.049.105 0 .21-.021.309-.05H64.71c.098.036.204.05.309.05.105 0 .21-.021.309-.05h.8a3.73 3.73 0 013.728 3.728v.148z" fill="#fff"/><path d="M66.129 85.743h-.218a6.765 6.765 0 00-6.683-5.742h-35.81c-3.383 0-6.191 2.499-6.683 5.742h-.218a5.66 5.66 0 00-5.658 5.658v.148a5.657 5.657 0 005.652 5.65h49.61a5.657 5.657 0 005.652-5.65V91.4a5.648 5.648 0 00-5.644-5.658zm-42.71-3.819h35.81a4.833 4.833 0 014.724 3.819h-45.26a4.84 4.84 0 014.725-3.819zm46.438 9.625a3.73 3.73 0 01-3.728 3.727H16.51a3.73 3.73 0 01-3.727-3.727V91.4a3.73 3.73 0 013.728-3.727h.8c.098.035.203.049.309.049.105 0 .21-.021.309-.05H64.71c.098.036.204.05.309.05.105 0 .21-.021.309-.05h.8a3.73 3.73 0 013.728 3.728v.148z" fill="url(#paint0_linear)"/><path d="M105.723 68.038c-.014-.007-.021-.014-.035-.014l-44.62-19.017 3.425-7.203a5.433 5.433 0 005.448-3.054l.063-.126a5.365 5.365 0 00.204-4.128 5.362 5.362 0 00-2.766-3.068L48.69 22.52A5.335 5.335 0 0046.388 22a5.433 5.433 0 00-4.893 3.082l-.063.126c-1.01 2.12-.505 4.577 1.074 6.15l-10.284 21.65a5.433 5.433 0 00-5.448 3.054l-.063.126a5.365 5.365 0 00-.204 4.128 5.363 5.363 0 002.766 3.068l18.744 8.908c.73.344 1.502.52 2.302.52a5.433 5.433 0 004.894-3.082l.063-.126a5.365 5.365 0 00.203-4.128 5.338 5.338 0 00-1.277-2.022l3.425-7.217 42.915 22.598c.014.007.021.014.035.021a6.002 6.002 0 007.982-2.843c1.418-2.977.147-6.557-2.836-7.975zm-62.55-42.001l.063-.127a3.503 3.503 0 013.152-1.98c.513 0 1.011.113 1.482.337l18.743 8.91a3.417 3.417 0 011.776 1.972 3.446 3.446 0 01-.133 2.653l-.063.127a3.503 3.503 0 01-3.152 1.98c-.513 0-1.011-.113-1.481-.337l-18.744-8.91a3.484 3.484 0 01-1.643-4.625zm10.362 42.738l-.063.127a3.503 3.503 0 01-3.153 1.98c-.512 0-1.01-.113-1.48-.338l-18.744-8.908a3.417 3.417 0 01-1.777-1.973 3.446 3.446 0 01.134-2.653l.063-.127a3.503 3.503 0 013.152-1.98c.512 0 1.01.113 1.481.337l18.744 8.909a3.417 3.417 0 011.776 1.973c.309.877.26 1.818-.133 2.653zm-.94-6.423l-18.506-8.796L44.114 32.46l18.505 8.79-10.025 21.102zm54.23 12.833a4.065 4.065 0 01-5.392 1.93l-42.97-22.619 1.783-3.748 44.669 19.038a4.068 4.068 0 011.91 5.399z" fill="#fff"/><path d="M105.723 68.038c-.014-.007-.021-.014-.035-.014l-44.62-19.017 3.425-7.203a5.433 5.433 0 005.448-3.054l.063-.126a5.365 5.365 0 00.204-4.128 5.362 5.362 0 00-2.766-3.068L48.69 22.52A5.335 5.335 0 0046.388 22a5.433 5.433 0 00-4.893 3.082l-.063.126c-1.01 2.12-.505 4.577 1.074 6.15l-10.284 21.65a5.433 5.433 0 00-5.448 3.054l-.063.126a5.365 5.365 0 00-.204 4.128 5.363 5.363 0 002.766 3.068l18.744 8.908c.73.344 1.502.52 2.302.52a5.433 5.433 0 004.894-3.082l.063-.126a5.365 5.365 0 00.203-4.128 5.338 5.338 0 00-1.277-2.022l3.425-7.217 42.915 22.598c.014.007.021.014.035.021a6.002 6.002 0 007.982-2.843c1.418-2.977.147-6.557-2.836-7.975zm-62.55-42.001l.063-.127a3.503 3.503 0 013.152-1.98c.513 0 1.011.113 1.482.337l18.743 8.91a3.417 3.417 0 011.776 1.972 3.446 3.446 0 01-.133 2.653l-.063.127a3.503 3.503 0 01-3.152 1.98c-.513 0-1.011-.113-1.481-.337l-18.744-8.91a3.484 3.484 0 01-1.643-4.625zm10.362 42.738l-.063.127a3.503 3.503 0 01-3.153 1.98c-.512 0-1.01-.113-1.48-.338l-18.744-8.908a3.417 3.417 0 01-1.777-1.973 3.446 3.446 0 01.134-2.653l.063-.127a3.503 3.503 0 013.152-1.98c.512 0 1.01.113 1.481.337l18.744 8.909a3.417 3.417 0 011.776 1.973c.309.877.26 1.818-.133 2.653zm-.94-6.423l-18.506-8.796L44.114 32.46l18.505 8.79-10.025 21.102zm54.23 12.833a4.065 4.065 0 01-5.392 1.93l-42.97-22.619 1.783-3.748 44.669 19.038a4.068 4.068 0 011.91 5.399z" fill="url(#paint1_linear)"/><defs><linearGradient id="paint0_linear" x1="41.316" y1="80.001" x2="41.316" y2="97.2" gradientUnits="userSpaceOnUse"><stop stop-color="#fff"/><stop offset="1" stop-color="#fff" stop-opacity="0"/></linearGradient><linearGradient id="paint1_linear" x1="67.664" y1="22" x2="67.664" y2="79.432" gradientUnits="userSpaceOnUse"><stop stop-color="#fff"/><stop offset="1" stop-color="#fff" stop-opacity="0"/></linearGradient></defs></svg>