<svg width="65" height="65" viewBox="0 0 65 65" fill="none" xmlns="http://www.w3.org/2000/svg"><path fill-rule="evenodd" clip-rule="evenodd" d="M41.004 12.783h-16.9a2.113 2.113 0 00-2.112 2.113v35.208c0 1.167.945 2.113 2.112 2.113h16.9a2.113 2.113 0 002.113-2.113V14.896a2.113 2.113 0 00-2.113-2.113zm-16.9-1.408a3.52 3.52 0 00-3.52 3.52v35.21a3.52 3.52 0 003.52 3.52h16.9a3.52 3.52 0 003.521-3.52v-35.21a3.52 3.52 0 00-3.52-3.52h-16.9z" fill="#fff"/><path fill-rule="evenodd" clip-rule="evenodd" d="M41.004 12.783h-16.9a2.113 2.113 0 00-2.112 2.113v35.208c0 1.167.945 2.113 2.112 2.113h16.9a2.113 2.113 0 002.113-2.113V14.896a2.113 2.113 0 00-2.113-2.113zm-16.9-1.408a3.52 3.52 0 00-3.52 3.52v35.21a3.52 3.52 0 003.52 3.52h16.9a3.52 3.52 0 003.521-3.52v-35.21a3.52 3.52 0 00-3.52-3.52h-16.9z" fill="url(#paint0_linear)"/><path fill="#fff" d="M21.666 15.708h21.667v1.083H21.666z"/><path fill="url(#paint1_linear)" d="M21.666 15.708h21.667v1.083H21.666z"/><path fill="#fff" d="M21.666 48.208h21.667v1.083H21.666z"/><path fill="url(#paint2_linear)" d="M21.666 48.208h21.667v1.083H21.666z"/><circle cx="32.555" cy="50.817" fill="#fff" r=".704"/><circle cx="32.555" cy="50.817" fill="url(#paint3_linear)" r=".704"/><path fill-rule="evenodd" clip-rule="evenodd" d="M39.15 27.455a.601.601 0 01.295.518v7.817c0 .22-.12.423-.314.528l-6.615 3.609a.601.601 0 01-.89-.528V31.58c0-.22.121-.423.314-.528l6.615-3.608a.602.602 0 01.595.01zm-6.32 4.483v6.448l5.412-2.953v-6.447l-5.412 2.952z" fill="#fff"/><path fill-rule="evenodd" clip-rule="evenodd" d="M39.15 27.455a.601.601 0 01.295.518v7.817c0 .22-.12.423-.314.528l-6.615 3.609a.601.601 0 01-.89-.528V31.58c0-.22.121-.423.314-.528l6.615-3.608a.602.602 0 01.595.01zm-6.32 4.483v6.448l5.412-2.953v-6.447l-5.412 2.952z" fill="url(#paint4_linear)"/><path fill-rule="evenodd" clip-rule="evenodd" d="M25.039 27.956c0-.22.12-.422.313-.527l6.588-3.593a.602.602 0 01.576 0l6.615 3.609a.602.602 0 010 1.055l-6.615 3.609a.601.601 0 01-.578-.001l-6.588-3.624a.602.602 0 01-.311-.528zm7.19 2.94l5.358-2.924-5.359-2.923-5.336 2.91 5.337 2.936z" fill="#fff"/><path fill-rule="evenodd" clip-rule="evenodd" d="M25.039 27.956c0-.22.12-.422.313-.527l6.588-3.593a.602.602 0 01.576 0l6.615 3.609a.602.602 0 010 1.055l-6.615 3.609a.601.601 0 01-.578-.001l-6.588-3.624a.602.602 0 01-.311-.528zm7.19 2.94l5.358-2.924-5.359-2.923-5.336 2.91 5.337 2.936z" fill="url(#paint5_linear)"/><path fill-rule="evenodd" clip-rule="evenodd" d="M25.306 27.455a.601.601 0 00-.294.518v7.817c0 .22.12.423.313.528l6.615 3.609a.601.601 0 00.89-.528V31.58c0-.22-.12-.423-.314-.528l-6.615-3.608a.602.602 0 00-.595.01zm6.32 4.483v6.448l-5.412-2.953v-6.447l5.413 2.952z" fill="#fff"/><path fill-rule="evenodd" clip-rule="evenodd" d="M25.306 27.455a.601.601 0 00-.294.518v7.817c0 .22.12.423.313.528l6.615 3.609a.601.601 0 00.89-.528V31.58c0-.22-.12-.423-.314-.528l-6.615-3.608a.602.602 0 00-.595.01zm6.32 4.483v6.448l-5.412-2.953v-6.447l5.413 2.952z" fill="url(#paint6_linear)"/><defs><linearGradient id="paint0_linear" x1="32.554" y1="11.375" x2="32.554" y2="53.625" gradientUnits="userSpaceOnUse"><stop stop-color="#fff"/><stop offset="1" stop-color="#fff" stop-opacity="0"/></linearGradient><linearGradient id="paint1_linear" x1="32.5" y1="15.708" x2="32.5" y2="16.792" gradientUnits="userSpaceOnUse"><stop stop-color="#fff"/><stop offset="1" stop-color="#fff" stop-opacity="0"/></linearGradient><linearGradient id="paint2_linear" x1="32.5" y1="48.208" x2="32.5" y2="49.292" gradientUnits="userSpaceOnUse"><stop stop-color="#fff"/><stop offset="1" stop-color="#fff" stop-opacity="0"/></linearGradient><linearGradient id="paint3_linear" x1="32.555" y1="50.113" x2="32.555" y2="51.521" gradientUnits="userSpaceOnUse"><stop stop-color="#fff"/><stop offset="1" stop-color="#fff" stop-opacity="0"/></linearGradient><linearGradient id="paint4_linear" x1="32.228" y1="23.763" x2="32.228" y2="40" gradientUnits="userSpaceOnUse"><stop stop-color="#fff"/><stop offset="1" stop-color="#fff" stop-opacity="0"/></linearGradient><linearGradient id="paint5_linear" x1="32.228" y1="23.763" x2="32.228" y2="40" gradientUnits="userSpaceOnUse"><stop stop-color="#fff"/><stop offset="1" stop-color="#fff" stop-opacity="0"/></linearGradient><linearGradient id="paint6_linear" x1="32.228" y1="23.763" x2="32.228" y2="40" gradientUnits="userSpaceOnUse"><stop stop-color="#fff"/><stop offset="1" stop-color="#fff" stop-opacity="0"/></linearGradient></defs></svg>