<svg width="65" height="65" viewBox="0 0 65 65" fill="none" xmlns="http://www.w3.org/2000/svg"><path fill-rule="evenodd" clip-rule="evenodd" d="M54.042 19.62H10.958a3.7 3.7 0 00-3.7 3.7V46.6a3.7 3.7 0 003.7 3.7h43.084a3.7 3.7 0 003.7-3.7V23.32a3.7 3.7 0 00-3.7-3.7zm-43.084-1.3a5 5 0 00-5 5V46.6a5 5 0 005 5h43.084a5 5 0 005-5V23.32a5 5 0 00-5-5H10.958z" fill="#fff"/><path fill-rule="evenodd" clip-rule="evenodd" d="M25.577 51.31c0 .64.45 1.157 1.061 1.157h9.417c.612 0 1.062-.518 1.062-1.157h1.154c0 1.278-.992 2.315-2.216 2.315h-9.417c-1.223 0-2.215-1.037-2.215-2.315h1.154z" fill="#fff"/><rect x="20.456" y="12.025" width="23.511" height="4.488" rx="2.244" stroke="#fff" stroke-width="1.3"/><ellipse cx="23.268" cy="14.269" rx=".577" ry=".579" fill="#fff"/></svg>