<svg width="66" height="65" viewBox="0 0 66 65" fill="none" xmlns="http://www.w3.org/2000/svg"><path d="M41.504 12.683h-16.9c-1.222 0-2.212.99-2.212 2.213v35.208c0 1.222.99 2.213 2.212 2.213h16.9c1.222 0 2.213-.99 2.213-2.213V14.896c0-1.222-.99-2.213-2.213-2.213zm-20.32 2.213a3.42 3.42 0 013.42-3.421h16.9a3.42 3.42 0 013.421 3.42v35.21a3.42 3.42 0 01-3.42 3.42h-16.9a3.42 3.42 0 01-3.422-3.42v-35.21z" fill="#fff" stroke="#fff" stroke-width=".2"/><path fill="#fff" d="M22.167 15.708h21.667v1.083H22.167zM22.167 48.208h21.667v1.083H22.167z"/><circle cx="33.055" cy="50.817" fill="#fff" r=".704"/></svg>