<svg width="49" height="51" viewBox="0 0 49 51" fill="none" xmlns="http://www.w3.org/2000/svg">
<path d="M2.33984 39V34.8516H2.97266V35.4805C3.13411 35.1862 3.28255 34.9922 3.41797 34.8984C3.55599 34.8047 3.70703 34.7578 3.87109 34.7578C4.10807 34.7578 4.34896 34.8333 4.59375 34.9844L4.35156 35.6367C4.17969 35.5352 4.00781 35.4844 3.83594 35.4844C3.68229 35.4844 3.54427 35.5312 3.42188 35.625C3.29948 35.7161 3.21224 35.8438 3.16016 36.0078C3.08203 36.2578 3.04297 36.5312 3.04297 36.8281V39H2.33984ZM7.85156 37.6641L8.57812 37.7539C8.46354 38.1784 8.2513 38.5078 7.94141 38.7422C7.63151 38.9766 7.23568 39.0938 6.75391 39.0938C6.14714 39.0938 5.66536 38.9076 5.30859 38.5352C4.95443 38.1602 4.77734 37.6354 4.77734 36.9609C4.77734 36.263 4.95703 35.7214 5.31641 35.3359C5.67578 34.9505 6.14193 34.7578 6.71484 34.7578C7.26953 34.7578 7.72266 34.9466 8.07422 35.3242C8.42578 35.7018 8.60156 36.2331 8.60156 36.918C8.60156 36.9596 8.60026 37.0221 8.59766 37.1055H5.50391C5.52995 37.5612 5.65885 37.9102 5.89062 38.1523C6.1224 38.3945 6.41146 38.5156 6.75781 38.5156C7.01562 38.5156 7.23568 38.4479 7.41797 38.3125C7.60026 38.1771 7.74479 37.9609 7.85156 37.6641ZM5.54297 36.5273H7.85938C7.82812 36.1784 7.73958 35.9167 7.59375 35.7422C7.36979 35.4714 7.07943 35.3359 6.72266 35.3359C6.39974 35.3359 6.1276 35.444 5.90625 35.6602C5.6875 35.8763 5.56641 36.1654 5.54297 36.5273ZM13.6406 36.9922L14.3984 37.1836C14.2396 37.806 13.9531 38.2812 13.5391 38.6094C13.1276 38.9349 12.6237 39.0977 12.0273 39.0977C11.4102 39.0977 10.9076 38.9727 10.5195 38.7227C10.1341 38.4701 9.83984 38.1055 9.63672 37.6289C9.4362 37.1523 9.33594 36.6406 9.33594 36.0938C9.33594 35.4974 9.44922 34.9779 9.67578 34.5352C9.90495 34.0898 10.2292 33.7526 10.6484 33.5234C11.0703 33.2917 11.5339 33.1758 12.0391 33.1758C12.612 33.1758 13.0938 33.3216 13.4844 33.6133C13.875 33.9049 14.1471 34.3151 14.3008 34.8438L13.5547 35.0195C13.4219 34.6029 13.2292 34.2995 12.9766 34.1094C12.724 33.9193 12.4062 33.8242 12.0234 33.8242C11.5833 33.8242 11.2148 33.9297 10.918 34.1406C10.6237 34.3516 10.4167 34.6354 10.2969 34.9922C10.1771 35.3464 10.1172 35.7122 10.1172 36.0898C10.1172 36.5768 10.1875 37.0026 10.3281 37.3672C10.4714 37.7292 10.6927 38 10.9922 38.1797C11.2917 38.3594 11.6159 38.4492 11.9648 38.4492C12.3893 38.4492 12.7487 38.3268 13.043 38.082C13.3372 37.8372 13.5365 37.474 13.6406 36.9922ZM14.707 39L16.9062 33.2734H17.7227L20.0664 39H19.2031L18.5352 37.2656H16.1406L15.5117 39H14.707ZM16.3594 36.6484H18.3008L17.7031 35.0625C17.5208 34.5807 17.3854 34.1849 17.2969 33.875C17.224 34.2422 17.1211 34.6068 16.9883 34.9688L16.3594 36.6484ZM20.6719 39V33.2734H22.832C23.2122 33.2734 23.5026 33.2917 23.7031 33.3281C23.9844 33.375 24.2201 33.4648 24.4102 33.5977C24.6003 33.7279 24.7526 33.9115 24.8672 34.1484C24.9844 34.3854 25.043 34.6458 25.043 34.9297C25.043 35.4167 24.888 35.8294 24.5781 36.168C24.2682 36.5039 23.7083 36.6719 22.8984 36.6719H21.4297V39H20.6719ZM21.4297 35.9961H22.9102C23.3997 35.9961 23.7474 35.9049 23.9531 35.7227C24.1589 35.5404 24.2617 35.2839 24.2617 34.9531C24.2617 34.7135 24.2005 34.5091 24.0781 34.3398C23.9583 34.168 23.7995 34.0547 23.6016 34C23.474 33.9661 23.2383 33.9492 22.8945 33.9492H21.4297V35.9961ZM27.4648 39V33.9492H25.5781V33.2734H30.1172V33.9492H28.2227V39H27.4648ZM34.9844 36.9922L35.7422 37.1836C35.5833 37.806 35.2969 38.2812 34.8828 38.6094C34.4714 38.9349 33.9674 39.0977 33.3711 39.0977C32.7539 39.0977 32.2513 38.9727 31.8633 38.7227C31.4779 38.4701 31.1836 38.1055 30.9805 37.6289C30.7799 37.1523 30.6797 36.6406 30.6797 36.0938C30.6797 35.4974 30.793 34.9779 31.0195 34.5352C31.2487 34.0898 31.5729 33.7526 31.9922 33.5234C32.4141 33.2917 32.8776 33.1758 33.3828 33.1758C33.9557 33.1758 34.4375 33.3216 34.8281 33.6133C35.2188 33.9049 35.4909 34.3151 35.6445 34.8438L34.8984 35.0195C34.7656 34.6029 34.5729 34.2995 34.3203 34.1094C34.0677 33.9193 33.75 33.8242 33.3672 33.8242C32.9271 33.8242 32.5586 33.9297 32.2617 34.1406C31.9674 34.3516 31.7604 34.6354 31.6406 34.9922C31.5208 35.3464 31.4609 35.7122 31.4609 36.0898C31.4609 36.5768 31.5312 37.0026 31.6719 37.3672C31.8151 37.7292 32.0365 38 32.3359 38.1797C32.6354 38.3594 32.9596 38.4492 33.3086 38.4492C33.7331 38.4492 34.0924 38.3268 34.3867 38.082C34.681 37.8372 34.8802 37.474 34.9844 36.9922ZM36.7031 39V33.2734H37.4609V35.625H40.4375V33.2734H41.1953V39H40.4375V36.3008H37.4609V39H36.7031ZM41.832 39L44.0312 33.2734H44.8477L47.1914 39H46.3281L45.6602 37.2656H43.2656L42.6367 39H41.832ZM43.4844 36.6484H45.4258L44.8281 35.0625C44.6458 34.5807 44.5104 34.1849 44.4219 33.875C44.349 34.2422 44.2461 34.6068 44.1133 34.9688L43.4844 36.6484Z" fill="#A5A5A5"/>
<path d="M0.984375 49V43.9893H2.87451C3.20719 43.9893 3.46126 44.0052 3.63672 44.0371C3.88281 44.0781 4.08903 44.1567 4.25537 44.2729C4.42171 44.3869 4.55501 44.5475 4.65527 44.7549C4.75781 44.9622 4.80908 45.1901 4.80908 45.4385C4.80908 45.8646 4.6735 46.2257 4.40234 46.522C4.13118 46.8159 3.64128 46.9629 2.93262 46.9629H1.64746V49H0.984375ZM1.64746 46.3716H2.94287C3.37126 46.3716 3.67546 46.2918 3.85547 46.1323C4.03548 45.9728 4.12549 45.7484 4.12549 45.459C4.12549 45.2493 4.07194 45.0705 3.96484 44.9224C3.86003 44.772 3.72103 44.6729 3.54785 44.625C3.4362 44.5954 3.22998 44.5806 2.9292 44.5806H1.64746V46.3716ZM5.56787 49V45.3701H6.12158V45.9204C6.26286 45.6629 6.39274 45.4932 6.51123 45.4111C6.632 45.3291 6.76416 45.2881 6.90771 45.2881C7.11507 45.2881 7.32585 45.3542 7.54004 45.4863L7.32812 46.0571C7.17773 45.9683 7.02734 45.9238 6.87695 45.9238C6.74251 45.9238 6.62174 45.9648 6.51465 46.0469C6.40755 46.1266 6.33122 46.2383 6.28564 46.3818C6.21729 46.6006 6.18311 46.8398 6.18311 47.0996V49H5.56787ZM7.90918 44.6968V43.9893H8.52441V44.6968H7.90918ZM7.90918 49V45.3701H8.52441V49H7.90918ZM10.4727 49L9.0918 45.3701H9.74121L10.5205 47.5439C10.6048 47.7786 10.6823 48.0225 10.7529 48.2754C10.8076 48.084 10.884 47.8538 10.9819 47.585L11.7886 45.3701H12.4209L11.0469 49H10.4727ZM15.333 48.5522C15.1051 48.7459 14.8853 48.8826 14.6733 48.9624C14.4637 49.0422 14.2381 49.082 13.9966 49.082C13.5978 49.082 13.2913 48.9852 13.0771 48.7915C12.863 48.5955 12.7559 48.346 12.7559 48.043C12.7559 47.8652 12.7957 47.7035 12.8755 47.5576C12.9575 47.4095 13.0635 47.291 13.1934 47.2021C13.3255 47.1133 13.4736 47.0461 13.6377 47.0005C13.7585 46.9686 13.9408 46.9378 14.1846 46.9082C14.6813 46.849 15.047 46.7783 15.2817 46.6963C15.284 46.612 15.2852 46.5584 15.2852 46.5356C15.2852 46.285 15.2271 46.1084 15.1108 46.0059C14.9536 45.8669 14.7201 45.7974 14.4102 45.7974C14.1208 45.7974 13.9066 45.8486 13.7676 45.9512C13.6309 46.0514 13.5295 46.2303 13.4634 46.4878L12.8618 46.4058C12.9165 46.1483 13.0065 45.9409 13.1318 45.7837C13.2572 45.6242 13.4383 45.5023 13.6753 45.418C13.9123 45.3314 14.1868 45.2881 14.499 45.2881C14.8089 45.2881 15.0607 45.3245 15.2544 45.3975C15.4481 45.4704 15.5905 45.5627 15.6816 45.6743C15.7728 45.7837 15.8366 45.9227 15.873 46.0913C15.8936 46.1961 15.9038 46.3853 15.9038 46.6587V47.479C15.9038 48.0509 15.9163 48.4132 15.9414 48.5659C15.9688 48.7163 16.0212 48.861 16.0986 49H15.4561C15.3923 48.8724 15.3512 48.7231 15.333 48.5522ZM15.2817 47.1782C15.0584 47.2694 14.7235 47.3468 14.2769 47.4106C14.0239 47.4471 13.8451 47.4881 13.7402 47.5337C13.6354 47.5793 13.5545 47.6465 13.4976 47.7354C13.4406 47.8219 13.4121 47.9188 13.4121 48.0259C13.4121 48.1899 13.4736 48.3267 13.5967 48.436C13.722 48.5454 13.9043 48.6001 14.1436 48.6001C14.3805 48.6001 14.5913 48.5488 14.7759 48.4463C14.9604 48.3415 15.096 48.1991 15.1826 48.019C15.2487 47.88 15.2817 47.675 15.2817 47.4038V47.1782ZM19.2295 47.6704L19.8345 47.749C19.7684 48.166 19.5986 48.493 19.3252 48.73C19.054 48.9647 18.7202 49.082 18.3237 49.082C17.827 49.082 17.4271 48.9202 17.124 48.5967C16.8232 48.2708 16.6729 47.8049 16.6729 47.1987C16.6729 46.8068 16.7378 46.4639 16.8677 46.1699C16.9976 45.876 17.1947 45.6561 17.459 45.5103C17.7256 45.3621 18.015 45.2881 18.3271 45.2881C18.7214 45.2881 19.0438 45.3883 19.2944 45.5889C19.5451 45.7871 19.7057 46.0697 19.7764 46.4365L19.1782 46.5288C19.1213 46.285 19.0199 46.1016 18.874 45.9785C18.7305 45.8555 18.5562 45.7939 18.3511 45.7939C18.0412 45.7939 17.7894 45.9056 17.5957 46.1289C17.402 46.3499 17.3052 46.7008 17.3052 47.1816C17.3052 47.6693 17.3986 48.0236 17.5854 48.2446C17.7723 48.4657 18.0161 48.5762 18.3169 48.5762C18.5584 48.5762 18.7601 48.5021 18.9219 48.354C19.0837 48.2059 19.1862 47.978 19.2295 47.6704ZM20.3335 50.3979L20.2651 49.8203C20.3996 49.8568 20.5169 49.875 20.6172 49.875C20.7539 49.875 20.8633 49.8522 20.9453 49.8066C21.0273 49.7611 21.0946 49.6973 21.147 49.6152C21.1857 49.5537 21.2484 49.401 21.335 49.1572C21.3464 49.123 21.3646 49.0729 21.3896 49.0068L20.0122 45.3701H20.6753L21.4307 47.4722C21.5286 47.7388 21.6164 48.019 21.6938 48.313C21.7645 48.0304 21.8488 47.7547 21.9468 47.4858L22.7227 45.3701H23.3379L21.957 49.0615C21.8089 49.4603 21.6938 49.7349 21.6118 49.8853C21.5024 50.0881 21.3771 50.2362 21.2358 50.3296C21.0946 50.4253 20.9259 50.4731 20.73 50.4731C20.6115 50.4731 20.4793 50.4481 20.3335 50.3979ZM25.5698 47.4961V46.8774H27.46V47.4961H25.5698ZM31.312 49V44.5806H29.6611V43.9893H33.6328V44.5806H31.9751V49H31.312ZM35.9434 47.8311L36.5791 47.9097C36.4788 48.2811 36.2931 48.5693 36.022 48.7744C35.7508 48.9795 35.4045 49.082 34.9829 49.082C34.452 49.082 34.0304 48.9191 33.7183 48.5933C33.4084 48.2651 33.2534 47.806 33.2534 47.2158C33.2534 46.6051 33.4106 46.1312 33.7251 45.7939C34.0396 45.4567 34.4474 45.2881 34.9487 45.2881C35.4341 45.2881 35.8306 45.4533 36.1382 45.7837C36.4458 46.1141 36.5996 46.5789 36.5996 47.1782C36.5996 47.2147 36.5985 47.2694 36.5962 47.3423H33.8892C33.9119 47.741 34.0247 48.0464 34.2275 48.2583C34.4303 48.4702 34.6833 48.5762 34.9863 48.5762C35.2119 48.5762 35.4045 48.5169 35.564 48.3984C35.7235 48.2799 35.8499 48.0908 35.9434 47.8311ZM33.9233 46.8364H35.9502C35.9229 46.5311 35.8454 46.3021 35.7178 46.1494C35.5218 45.9124 35.2677 45.7939 34.9556 45.7939C34.673 45.7939 34.4349 45.8885 34.2412 46.0776C34.0498 46.2668 33.9438 46.5197 33.9233 46.8364ZM37.3481 49V45.3701H37.9019V45.9204C38.0431 45.6629 38.173 45.4932 38.2915 45.4111C38.4123 45.3291 38.5444 45.2881 38.688 45.2881C38.8953 45.2881 39.1061 45.3542 39.3203 45.4863L39.1084 46.0571C38.958 45.9683 38.8076 45.9238 38.6572 45.9238C38.5228 45.9238 38.402 45.9648 38.2949 46.0469C38.1878 46.1266 38.1115 46.2383 38.0659 46.3818C37.9976 46.6006 37.9634 46.8398 37.9634 47.0996V49H37.3481ZM39.686 49V45.3701H40.2363V45.8794C40.3503 45.7017 40.5018 45.5592 40.6909 45.4521C40.88 45.3428 41.0954 45.2881 41.3369 45.2881C41.6058 45.2881 41.8257 45.3439 41.9966 45.4556C42.1698 45.5672 42.2917 45.7233 42.3623 45.9238C42.6494 45.5 43.0231 45.2881 43.4834 45.2881C43.8434 45.2881 44.1203 45.3883 44.314 45.5889C44.5076 45.7871 44.6045 46.0936 44.6045 46.5083V49H43.9927V46.7134C43.9927 46.4673 43.9722 46.2907 43.9312 46.1836C43.8924 46.0742 43.8206 45.9865 43.7158 45.9204C43.611 45.8543 43.488 45.8213 43.3467 45.8213C43.0915 45.8213 42.8796 45.9067 42.7109 46.0776C42.5423 46.2463 42.458 46.5174 42.458 46.8911V49H41.8428V46.6416C41.8428 46.3682 41.7926 46.1631 41.6924 46.0264C41.5921 45.8896 41.4281 45.8213 41.2002 45.8213C41.027 45.8213 40.8664 45.8669 40.7183 45.958C40.5724 46.0492 40.4665 46.1825 40.4004 46.3579C40.3343 46.5334 40.3013 46.7863 40.3013 47.1167V49H39.686ZM45.271 47.9165L45.8794 47.8208C45.9136 48.0646 46.0081 48.2515 46.1631 48.3813C46.3203 48.5112 46.5391 48.5762 46.8193 48.5762C47.1019 48.5762 47.3115 48.5192 47.4482 48.4053C47.585 48.2891 47.6533 48.1535 47.6533 47.9985C47.6533 47.8595 47.5929 47.7502 47.4722 47.6704C47.3879 47.6157 47.1782 47.5462 46.8433 47.4619C46.3921 47.348 46.0788 47.25 45.9033 47.168C45.7301 47.0837 45.598 46.9686 45.5068 46.8228C45.418 46.6746 45.3735 46.5117 45.3735 46.334C45.3735 46.1722 45.41 46.0229 45.4829 45.8862C45.5581 45.7472 45.6595 45.6322 45.7871 45.541C45.8828 45.4704 46.0127 45.4111 46.1768 45.3633C46.3431 45.3132 46.5208 45.2881 46.71 45.2881C46.9948 45.2881 47.2443 45.3291 47.4585 45.4111C47.675 45.4932 47.8345 45.6048 47.937 45.7461C48.0396 45.8851 48.1102 46.0719 48.1489 46.3066L47.5474 46.3887C47.52 46.2018 47.4403 46.056 47.3081 45.9512C47.1782 45.8464 46.9937 45.7939 46.7544 45.7939C46.4718 45.7939 46.2702 45.8407 46.1494 45.9341C46.0286 46.0275 45.9683 46.1369 45.9683 46.2622C45.9683 46.342 45.9933 46.4137 46.0435 46.4775C46.0936 46.5436 46.1722 46.5983 46.2793 46.6416C46.3408 46.6644 46.522 46.7168 46.8228 46.7988C47.258 46.915 47.561 47.0107 47.7319 47.0859C47.9051 47.1589 48.0407 47.266 48.1387 47.4072C48.2367 47.5485 48.2856 47.724 48.2856 47.9336C48.2856 48.1387 48.2253 48.3324 48.1045 48.5146C47.986 48.6947 47.814 48.8348 47.5884 48.9351C47.3628 49.033 47.1076 49.082 46.8228 49.082C46.3511 49.082 45.991 48.984 45.7427 48.7881C45.4966 48.5921 45.3394 48.3016 45.271 47.9165Z" fill="#A5A5A5"/>
<g filter="url(#filter0_d)">
<path fill-rule="evenodd" clip-rule="evenodd" d="M20.5583 8.30784C21.5463 7.87659 22.7106 7.60442 24.0058 7.72719C27.7234 8.07958 29.5676 10.4237 29.8961 10.8841L26.2049 14.511L37.6473 14.6019L37.498 3.41471L34.8286 6.03755C34.4619 5.55887 30.7862 0.999969 23.8033 0.999969C20.7341 0.999969 18.2705 1.87107 16.4404 2.88773L20.5583 8.30784Z" fill="#2B4CB9"/>
</g>
<g filter="url(#filter1_d)">
<path fill-rule="evenodd" clip-rule="evenodd" d="M11.4385 1.17937L14.2131 3.77652C13.8368 4.03778 8.94092 7.56751 8.94092 14.3638C8.94092 15.2933 9.03151 16.165 9.18888 16.9779L16.2735 16.7771C16.0002 15.9941 15.8577 15.1185 15.9555 14.1695C16.3284 10.5516 18.8399 8.78366 19.2672 8.50748L23.0088 12.0098L23.1036 1.0361L11.4385 1.17937Z" fill="#5A96F6"/>
</g>
<g filter="url(#filter2_d)">
<path fill-rule="evenodd" clip-rule="evenodd" d="M11.7978 23.5944L9.12854 26.2172L8.97916 15.0299L20.4216 15.1209L16.7302 18.7479C17.0582 19.2075 18.9024 21.5526 22.6208 21.9051C26.7465 22.2962 29.5445 18.6796 29.5445 18.6796L34.0713 23.6096C34.0713 23.6096 30.1931 28.6323 22.8233 28.6323C15.8391 28.6323 12.1632 24.0716 11.7978 23.5944Z" fill="#BEBEBE"/>
</g>
<defs>
<filter id="filter0_d" x="15.5163" y="0.0758771" width="23.0551" height="15.4501" filterUnits="userSpaceOnUse" color-interpolation-filters="sRGB">
<feFlood flood-opacity="0" result="BackgroundImageFix"/>
<feColorMatrix in="SourceAlpha" type="matrix" values="0 0 0 0 0 0 0 0 0 0 0 0 0 0 0 0 0 0 127 0"/>
<feOffset/>
<feGaussianBlur stdDeviation="0.462046"/>
<feColorMatrix type="matrix" values="0 0 0 0 0 0 0 0 0 0 0 0 0 0 0 0 0 0 0.5 0"/>
<feBlend mode="normal" in2="BackgroundImageFix" result="effect1_dropShadow"/>
<feBlend mode="normal" in="SourceGraphic" in2="effect1_dropShadow" result="shape"/>
</filter>
<filter id="filter1_d" x="8.01683" y="0.11201" width="16.0108" height="17.79" filterUnits="userSpaceOnUse" color-interpolation-filters="sRGB">
<feFlood flood-opacity="0" result="BackgroundImageFix"/>
<feColorMatrix in="SourceAlpha" type="matrix" values="0 0 0 0 0 0 0 0 0 0 0 0 0 0 0 0 0 0 127 0"/>
<feOffset/>
<feGaussianBlur stdDeviation="0.462046"/>
<feColorMatrix type="matrix" values="0 0 0 0 0 0 0 0 0 0 0 0 0 0 0 0 0 0 0.5 0"/>
<feBlend mode="normal" in2="BackgroundImageFix" result="effect1_dropShadow"/>
<feBlend mode="normal" in="SourceGraphic" in2="effect1_dropShadow" result="shape"/>
</filter>
<filter id="filter2_d" x="8.05506" y="14.1058" width="26.9403" height="15.4505" filterUnits="userSpaceOnUse" color-interpolation-filters="sRGB">
<feFlood flood-opacity="0" result="BackgroundImageFix"/>
<feColorMatrix in="SourceAlpha" type="matrix" values="0 0 0 0 0 0 0 0 0 0 0 0 0 0 0 0 0 0 127 0"/>
<feOffset/>
<feGaussianBlur stdDeviation="0.462046"/>
<feColorMatrix type="matrix" values="0 0 0 0 0 0 0 0 0 0 0 0 0 0 0 0 0 0 0.382529 0"/>
<feBlend mode="normal" in2="BackgroundImageFix" result="effect1_dropShadow"/>
<feBlend mode="normal" in="SourceGraphic" in2="effect1_dropShadow" result="shape"/>
</filter>
</defs>
</svg>
