<svg width="551" height="387" viewBox="0 0 551 387" fill="none" xmlns="http://www.w3.org/2000/svg">
  <g opacity="0.2" filter="url(#filter0_f)">
    <path
      d="M337.995 366.601C387.164 366.601 427.022 361.004 427.022 354.101C427.022 347.197 387.164 341.601 337.995 341.601C288.827 341.601 248.968 347.197 248.968 354.101C248.968 361.004 288.827 366.601 337.995 366.601Z"
      fill="#16325C" />
  </g>
  <path
    d="M404.253 77.2008C404.253 77.2008 399.486 78.7008 398.999 79.3008C398.805 79.5008 397.345 80.3008 398.416 83.4008C398.805 84.5008 399.583 85.7008 400.751 85.8008C401.432 85.9008 403.572 84.8008 405.129 84.2008C405.616 84.9008 406.005 85.1008 406.491 85.3008C407.951 85.8008 408.924 85.9008 411.064 85.5008C413.205 85.1008 416.221 84.8008 417.875 83.4008C419.626 82.0008 418.556 81.2008 418.556 81.2008C418.556 81.2008 419.432 80.9008 419.529 80.0008C419.626 79.0008 419.043 78.3008 419.043 78.3008C419.043 78.3008 419.821 77.5008 419.918 76.7008C420.016 75.9008 419.335 75.1008 419.335 75.1008C419.335 75.1008 420.599 74.6008 420.405 73.4008C420.21 72.3008 417.972 71.9008 417.291 71.9008C416.61 71.9008 415.345 72.0008 415.345 72.0008C415.345 72.0008 416.124 69.8008 415.248 69.7008C414.762 69.6008 412.524 70.9008 410.578 70.7008C408.243 70.6008 406.686 72.5008 406.199 73.2008C405.032 75.0008 404.253 77.2008 404.253 77.2008Z"
    fill="#F0A5A6" />
  <path
    d="M337.798 329.501L333.225 347.001C333.225 347.001 338.285 350.601 343.053 347.701L346.263 332.101C346.263 332.101 337.507 329.101 337.798 329.501Z"
    fill="#231F20" />
  <path
    d="M342.469 338.9C342.469 338.9 340.815 343.7 343.344 345.5C345.777 347.2 348.501 346.8 352.685 346.2C358.133 345.4 366.501 353.2 355.896 352.5C354.339 352.4 345.679 351.7 341.593 348.3C339.647 346.6 339.939 342.7 340.523 341.5L342.469 338.9Z"
    fill="#231F20" />
  <path
    d="M353.953 150.4C343.055 139.4 330.893 133.6 319.801 142.9L316.59 145.5C300.342 159 345.001 227.8 353.855 239.7C365.142 254.9 386.742 275.9 393.163 265.6C400.558 253.7 398.32 241.8 398.32 239.7C398.32 222.8 391.023 207.6 383.628 193.9C377.498 182.6 366.504 163.1 353.953 150.4Z"
    fill="#015198" />
  <path
    d="M345.291 340.5C353.756 331 370.588 309.3 380.513 290L380.61 289.9L393.648 266C398.415 254.2 394.426 248.2 388.491 245L365.724 252.6C355.41 271.8 338.578 321.6 335.464 334C335.464 333.9 341.399 340.6 345.291 340.5Z"
    fill="#015198" />
  <path
    d="M298.88 332.001L292.167 348.701C292.167 348.701 296.74 352.901 301.799 350.601L306.956 335.601C306.956 335.601 298.686 331.601 298.88 332.001Z"
    fill="#231F20" />
  <path
    d="M301.312 341.301C301.312 341.301 299.95 346.201 302.577 347.801C305.204 349.401 307.733 348.801 311.917 348.001C317.269 346.901 326.123 354.101 315.517 354.101C313.96 354.101 305.204 353.901 301.02 350.801C298.977 349.301 298.977 345.301 299.56 344.101L301.312 341.301Z"
    fill="#231F20" />
  <path
    d="M304.427 345.501C314.254 334.801 334.005 310.501 346.557 289.001C346.557 288.901 346.654 288.901 346.654 288.801L352.589 278.801C359.497 267.201 360.47 255.001 354.924 251.601L353.076 250.401C347.53 246.901 332.449 248.701 332.351 248.801C306.276 292.301 300.049 324.601 295.378 338.401C295.378 338.401 300.438 345.601 304.427 345.501Z"
    fill="#005DAF" />
  <path
    d="M345.877 141.701C338.871 127.701 322.136 131.001 308.709 136.201L304.915 137.701C285.358 145.201 292.752 170.401 300.342 188.901C306.082 202.901 329.336 259.601 338.482 267.201C342.082 270.201 352.396 270.301 354.244 269.501C356.19 268.801 357.747 266.201 358.525 261.401C361.055 246.601 359.985 220.501 358.428 204.901C357.163 192.101 353.953 157.801 345.877 141.701Z"
    fill="#005DAF" />
  <path
    d="M333.908 14.8001C337.8 21.7001 337.411 34.6001 334.881 35.8001C329.433 38.4001 317.757 33.6001 313.865 26.7001C309.973 19.8001 311.335 11.5001 316.881 8.20013C322.33 5.00013 330.016 7.90013 333.908 14.8001Z"
    fill="#F0A5A6" />
  <path d="M327.486 45.6012H316.978V29.2012L329.042 29.9012C329.14 29.9012 326.026 38.5012 327.486 45.6012Z"
    fill="#F0A5A6" />
  <path
    d="M332.157 15.8008C332.157 15.8008 336.925 18.2008 338.482 18.4008C340.039 18.6008 340.817 19.2008 339.358 21.0008C337.995 22.8008 335.563 23.5008 335.563 23.5008L332.157 15.8008Z"
    fill="#F0A5A6" />
  <path
    d="M402.696 79.4004C402.502 78.4004 401.529 77.7004 400.458 77.8004C394.037 78.7004 376.231 82.0004 374.48 82.9004C372.826 83.7004 352.199 69.3004 351.031 67.7004C343.15 65.6004 351.031 83.0004 347.723 87.7004C350.253 92.2004 365.529 96.8004 365.529 96.8004C374.772 99.1004 395.983 89.4004 402.599 85.7004C403.377 85.3004 403.864 84.3004 403.572 83.4004L402.696 79.4004Z"
    fill="#015198" />
  <path
    d="M356.187 85.0006C354.631 86.7006 352.685 88.9006 351.031 90.6006C342.663 86.2006 337.798 85.0006 327.874 76.3006C318.825 67.5006 310.166 64.8006 312.014 54.9006C313.96 47.4006 324.371 45.1006 324.468 45.1006C335.074 49.9006 351.614 67.1006 361.831 79.0006C360.274 81.3006 358.036 83.0006 356.187 85.0006Z"
    fill="#015198" />
  <path
    d="M313.672 40.9006C315.229 39.9006 313.866 38.6006 315.229 38.6006L326.515 39.9006C330.018 39.8006 328.266 41.7006 328.85 42.2006C344.223 55.9006 345.975 97.1006 351.618 131.901C351.715 132.601 351.812 133.201 351.812 133.901C352.299 135.001 352.493 136.201 352.396 137.401C351.52 144.701 338.191 151.401 321.65 152.401C306.861 153.301 294.212 149.401 290.904 143.201C290.904 143.201 290.904 143.201 290.904 143.101C290.807 143.001 290.807 142.801 290.71 142.701C289.931 141.101 289.639 139.101 289.639 137.001C289.931 123.401 289.348 110.501 291.099 99.1006C296.45 46.6006 313.088 40.8006 313.672 40.9006Z"
    fill="#ECF4FA" />
  <path
    d="M316.396 28.4005C316.396 28.4005 317.953 28.2005 317.953 25.3005C317.953 23.2005 319.607 21.2005 320.483 21.0005C321.358 20.8005 324.083 20.2005 324.667 16.2005C324.861 14.8005 324.375 12.6005 325.348 11.4005C325.64 11.0005 326.126 10.8005 326.515 10.7005C329.629 9.60052 333.229 10.5005 336.05 8.50052C338.775 6.60052 338.288 2.10052 335.369 1.10052C332.353 0.10052 328.656 5.50052 325.931 4.80052C324.569 4.50052 323.791 3.20052 322.721 2.40052C321.358 1.50052 319.607 1.20052 318.05 1.20052C314.645 1.30052 311.434 2.70052 309.78 5.90052C308.807 7.80052 307.931 9.90052 305.791 10.6005C304.623 11.0005 303.456 11.1005 302.288 11.4005C300.245 12.0005 298.396 13.3005 297.326 15.1005C294.894 19.3005 298.007 24.1005 301.802 26.1005C305.013 27.7005 304.623 30.0005 304.429 31.8005C304.234 35.2005 308.321 39.7005 313.769 36.1005C314.937 37.3005 316.883 36.8005 316.883 36.8005L318.148 33.1005C318.342 33.2005 316.494 30.4005 316.396 28.4005Z"
    fill="#0C232B" />
  <path
    d="M316.687 23.1005C317.465 25.3005 319.022 26.7005 320.19 26.3005C321.357 25.9005 321.747 23.7005 320.968 21.5005C320.19 19.3005 318.633 17.9005 317.465 18.3005C316.298 18.7005 315.909 20.9005 316.687 23.1005Z"
    fill="#F0A5A6" />
  <path
    d="M406.686 77.2004C402.114 97.2004 396.957 119.9 384.697 132.5C351.811 166.3 307.346 166.8 231.843 155.6C185.627 148.8 147.876 155 116.449 174.6C89.8865 191.2 68.1892 217.5 49.8973 255C30.1459 295.7 -7.60541 319.2 -51 332.2V341.7C-4.39459 328.2 36.4703 303.2 57.8757 259.1C95.5297 181.7 148.751 152.6 230.481 164.7C262.395 169.4 295.865 173.3 324.178 170.1C352.2 166.9 373.411 157 390.924 139C405.032 124.6 410.481 100.5 415.346 79.3004C421.865 50.4004 450.859 54.5004 452.124 54.7004L452.805 50.2004L453.486 45.7004C440.254 43.5004 413.4 47.4004 406.686 77.2004Z"
    fill="#ECF4FA" />
  <path
    d="M548.547 35.4004H520.428C519.066 35.4004 517.995 34.3004 517.995 32.9004C517.995 31.5004 519.066 30.4004 520.428 30.4004H548.547C549.909 30.4004 550.979 31.5004 550.979 32.9004C550.979 34.3004 549.909 35.4004 548.547 35.4004Z"
    fill="#A8B7C7" />
  <path
    d="M548.547 66.7002H520.428C519.066 66.7002 517.995 65.6002 517.995 64.2002C517.995 62.8002 519.066 61.7002 520.428 61.7002H548.547C549.909 61.7002 550.979 62.8002 550.979 64.2002C550.979 65.6002 549.909 66.7002 548.547 66.7002Z"
    fill="#A8B7C7" />
  <path
    d="M463.021 57.1005L446.091 54.7005C444.34 54.5005 442.978 52.0005 442.978 49.1005C442.978 46.3005 444.34 43.8005 446.091 43.5005L463.021 41.1005C467.01 40.5005 470.707 44.1005 470.707 49.0005C470.805 54.1005 467.01 57.7005 463.021 57.1005Z"
    fill="#999999" />
  <path
    d="M504.47 70.4002H474.308C468.957 70.4002 464.676 65.9002 464.676 60.5002V36.6002C464.676 31.1002 469.054 26.7002 474.308 26.7002H504.47C509.822 26.7002 514.103 31.2002 514.103 36.6002V60.5002C514.103 66.0002 509.724 70.4002 504.47 70.4002Z"
    fill="url(#paint0_linear)" />
  <path
    d="M522.663 74.9002H501.257C498.533 74.9002 496.392 72.6002 496.392 69.9002V27.2002C496.392 24.4002 498.63 22.2002 501.257 22.2002H522.663C525.387 22.2002 527.528 24.5002 527.528 27.2002V69.9002C527.528 72.7002 525.29 74.9002 522.663 74.9002Z"
    fill="#999999" />
  <path
    d="M499.7 79.6H495.614C494.155 79.6 492.987 78.4 492.987 76.9V20.2C492.987 18.7 494.155 17.5 495.614 17.5H499.7C501.16 17.5 502.328 18.7 502.328 20.2V77C502.23 78.4 501.063 79.6 499.7 79.6Z"
    fill="#BBBDBF" />
  <path
    d="M464.481 41.2012C463.995 41.2012 463.508 41.2012 463.022 41.2012L458.838 41.8012V56.5012L463.022 57.1011C463.508 57.2011 463.995 57.2011 464.481 57.1011V41.2012Z"
    fill="#CCCCCC" />
  <path d="M504.958 22.3008H502.234V75.1008H504.958V22.3008Z" fill="#808080" />
  <path
    d="M399.585 96.2003C399.585 96.2003 394.623 97.0003 394.136 97.4003C393.941 97.6003 392.287 98.1003 392.968 101.3C393.163 102.5 393.844 103.7 394.914 104C395.595 104.2 397.833 103.4 399.487 103.1C399.877 103.8 400.168 104.1 400.655 104.4C402.017 105.1 402.99 105.4 405.131 105.3C407.271 105.2 410.287 105.4 412.136 104.3C414.082 103.2 413.109 102.2 413.109 102.2C413.109 102.2 413.985 102.1 414.277 101.1C414.568 100.2 413.985 99.4003 413.985 99.4003C413.985 99.4003 414.86 98.7003 415.055 97.9003C415.25 97.1003 414.666 96.3003 414.666 96.3003C414.666 96.3003 415.931 96.0003 415.931 94.8003C415.931 93.6003 413.693 92.9003 413.109 92.9003C412.428 92.8003 411.26 92.7003 411.26 92.7003C411.26 92.7003 412.331 90.7003 411.552 90.4003C411.163 90.3003 408.731 91.1003 406.785 90.7003C404.547 90.2003 402.601 91.9003 402.017 92.5003C400.752 94.1003 399.585 96.2003 399.585 96.2003Z"
    fill="#F0A5A6" />
  <path
    d="M417.292 83.8011C418.751 83.2011 418.168 81.9011 418.07 80.6011C417.973 78.2011 417.584 75.3011 418.751 73.1011C418.849 73.0011 418.849 72.9011 418.751 72.8011C418.849 72.6011 418.751 72.4011 418.557 72.3011C416.708 71.3011 413.789 70.5011 412.135 72.3011C411.649 72.8011 411.357 73.5011 411.649 74.2011C411.843 74.6011 412.135 74.9011 412.524 75.1011C411.843 75.5011 411.357 76.1011 411.551 77.1011C411.746 78.1011 412.524 78.6011 413.303 78.8011C412.816 79.2011 412.427 79.8011 412.816 80.6011C413.108 81.3011 413.984 81.7011 414.762 81.9011C413.984 83.0011 415.443 84.5011 417.292 83.8011Z"
    fill="#F0A5A6" />
  <path
    d="M332.35 102.7C324.566 95.2003 316.004 86.1003 309.777 77.1003L309.679 77.0003L304.62 69.9003C298.685 61.6003 306.858 49.3003 306.858 49.3003C312.501 45.0003 321.258 44.6003 327.096 52.9003L332.155 60.0003L332.252 60.1003C337.409 67.2003 342.274 75.8003 346.36 84.1003C340.814 89.5003 336.242 96.0003 332.35 102.7Z"
    fill="#015198" />
  <path
    d="M342.666 97.4C344.029 97.4 345.391 97.3 346.753 97.3C346.072 92.4 345.391 87.7 344.515 83.1C327.488 85.6 310.169 85.4 293.434 82C292.753 85.6 292.169 89.6 291.585 93.9C307.931 99.2 325.834 98 342.666 97.4Z"
    fill="#00FFF0" />
  <path
    d="M328.848 122.901C335.951 122.101 342.956 120.101 349.475 117.301C348.988 114.001 348.599 110.701 348.113 107.401C346.653 107.501 345.194 107.501 343.734 107.601C326.221 108.201 307.442 109.401 290.415 104.201C290.026 108.101 289.832 112.101 289.734 116.201C301.994 122.101 315.226 124.501 328.848 122.901Z"
    fill="#00FFF0" />
  <path
    d="M396.956 98.0003C396.859 97.0003 395.983 96.3003 395.108 96.5003C387.129 98.1003 367.281 99.3003 363.486 100.3C358.427 101.6 353.173 99.1003 351.032 94.2003C346.265 83.3003 339.551 70.2003 332.156 60.0003L332.059 59.9003L327 52.8003C323.4 49.2003 316.589 48.5003 310.848 52.8003C310.848 52.8003 302.092 64.8003 304.524 69.8003L309.584 76.9003L309.681 77.0003C321.162 93.4003 340.329 110.6 348.405 116.6C351.908 123.1 366.113 121.2 377.983 115.3C377.983 115.3 395.4 106.3 397.248 104.6L396.956 98.0003Z"
    fill="#005DAF" />
  <defs>
    <filter id="filter0_f" x="228.968" y="321.601" width="218.054" height="65" filterUnits="userSpaceOnUse"
      color-interpolation-filters="sRGB">
      <feFlood flood-opacity="0" result="BackgroundImageFix" />
      <feBlend mode="normal" in="SourceGraphic" in2="BackgroundImageFix" result="shape" />
      <feGaussianBlur stdDeviation="10" result="effect1_foregroundBlur" />
    </filter>
    <linearGradient id="paint0_linear" x1="464.569" y1="48.5572" x2="514.117" y2="48.5572"
      gradientUnits="userSpaceOnUse">
      <stop offset="0.3073" stop-color="#CCCCCC" />
      <stop offset="0.8855" stop-color="#666666" />
    </linearGradient>
  </defs>
</svg>
