<svg width="542" height="384" viewBox="0 0 542 384" fill="none" xmlns="http://www.w3.org/2000/svg"><g opacity=".2" filter="url(#filter0_f)"><path d="M256.91 363.426c49.168 0 89.027-5.597 89.027-12.5 0-6.904-39.859-12.5-89.027-12.5-49.169 0-89.027 5.596-89.027 12.5 0 6.903 39.858 12.5 89.027 12.5z" fill="#16325C"/></g><path d="M233.751 24.826s-5.06-6.1.583-15.1c3.892-6 7.979-3.5 7.784-.5-.097 3-3.6 11.4-8.367 15.6z" fill="#0C232B"/><path d="M314.801 316.525l6.13 13.6s-2.043 5.8-7.395 6.3l-5.157-13.6c-.097.1 6.422-6.7 6.422-6.3z" fill="#231F20"/><path d="M310.325 327.725s2.724 4.5 1.751 7.3c-.973 2.8-3.308 4.1-7.005 6.1-4.768 2.6-7.103 13.7.973 6.9 1.167-1 7.686-6.7 9.048-11.8.681-2.5-1.848-5.5-2.919-6l-1.848-2.5z" fill="#231F20"/><path d="M307.112 330.325c-10.118-8.5-49.719-59.5-49.719-59.5-7.589-9.6-8.075-17.4-3.405-21.3l1.557-1.3c4.67-3.8 18.486-4.1 18.584-4 27.048 34.2 38.919 60.2 45.146 73 .681 1.4.583 3-.195 4.4-2.043 3.3-6.422 9-11.968 8.7z" fill="#015198"/><path d="M221.2 330.725l-1.751 14.9s-4.67 3.9-9.535 1.4l2.53-14.4s8.951-2.3 8.756-1.9z" fill="#231F20"/><path d="M211.763 337.825s0 5.3-2.238 7.2c-2.335 1.9-4.962 1.7-9.049 1.4-5.351-.4-13.038 7.8-2.724 6.4 1.557-.2 9.924-1.5 13.719-5.2 1.848-1.8 1.265-5.6.584-6.7l-.292-3.1z" fill="#231F20"/><path d="M209.913 336.125c-8.271-19.1-10.509-75.6-8.952-86.4l29.287-2c.097 18.7-2.725 67.5-5.741 83.6-.292 1.8-1.654 3.3-3.405 3.8-3.406 1-9.146 2.3-11.189 1z" fill="#005DAF"/><path d="M129.353 86.925s4.963-.9 5.546-.7c.195.1 1.946.1 2.335 3.3.195 1.2 0 2.6-.972 3.3-.584.4-3.017.5-4.573.7-.098.8-.39 1.2-.779 1.6-1.07 1.1-1.848 1.7-3.892 2.4-2.043.7-4.865 1.8-7.005 1.4-2.141-.4-1.654-1.7-1.654-1.7s-.876.1-1.46-.6c-.583-.8-.292-1.7-.292-1.7s-1.07-.3-1.459-1-.195-1.7-.195-1.7-1.362.1-1.654-1c-.291-1.1 1.46-2.5 2.044-2.8.583-.3 1.751-.8 1.751-.8s-1.654-1.6-.973-2.1c.389-.3 2.919-.3 4.67-1.3 1.946-1.2 4.281-.3 5.06.1 1.848 1 3.502 2.6 3.502 2.6z" fill="#F0A5A6"/><path d="M267.221 19.125c-1.752-4.4-6.033-2.7-6.033-2.7s2.627-5.6-1.265-7.9c-3.989-2.3-5.643 1.6-7.783.9-1.752-.6-1.654-2-2.53-2.8-.389.7-.876 1.4-1.654 2-3.114 2.1-6.714 3.3-9.633 5.6-.583.5-1.362.7-2.043.7-.681.4-1.362.6-2.14.6 1.459 2 3.794 3 8.173 2.1 4.573-1 5.837 1 5.935 4.5.097 3.5 1.459 4.8 1.459 4.8s3.114-2 3.698 1.9c.583 3.9-2.53 5.3-2.53 5.3s0 1.5-.487 4.5c-.486 3.1-.194 3.4 2.335 2.7 3.309-1 6.033-2.5 7.881-5.2 1.849-2.6 1.946-5.4.487-6.1-.195-.3 7.784-6.9 6.13-10.9z" fill="#0C232B"/><path d="M239.882 143.625c2.918-15.5 54.681-31.1 46.313 34.7-1.946 15.1-9.438 72-15.762 82.2-2.53 4-14.303 8.6-15.373 7.1-.973-1.4-3.016-4.1-4.865-8.3-5.643-13.3-4.573-36.4-6.811-51.6-1.848-12.8-6.908-46.3-3.502-64.1z" fill="#015198"/><path d="M207.871 167.826c3.794-15.2 5.838-27.3 14.108-33.9l45.73 7.2c4.378 19.4-13.427 35-26.173 69.6-2.238 6-8.076 30.6-11.384 44.2-3.211 13.3-14.497 17.2-19.946 15-8.951-3.5-9.243-13.5-9.438-15.4-1.849-19.7 3.795-73.4 7.103-86.7zM261.967 73.226c-4.573-7.6-.681-27.5-.681-27.5 11.189-6.1 24.713 10.3 29.481 21 10.508 17.2 15.178 33.5 16.151 38.6.973 5.4-3.016 16.6-5.546 15.3-4.573-2.3-25.103-30.3-37.362-34.7l-2.043-12.7z" fill="#005DAF"/><path d="M228.986 45.225s26.659 9.9 20.432 15.4l-17.708 14.1s-.097 0-.097.1c-14.011 12.5-38.725 21.9-43.59 22.4-2.627.3-8.075-12-.486-17.6 7.297-4.8 31.135-27.3 41.449-34.4z" fill="#015198"/><path d="M244.358 50.225c2.627-.5 5.157-2 7.395-4.1l-.195 2.4-5.156 10.3-4.573-8.4c.875 0 1.654 0 2.529-.2z" fill="#C080B1"/><path d="M133.732 90.225l.098-2.9c.097-2.9 2.724-5.2 5.74-5.1 36.487 1.3 47.871-2.9 47.871-2.9 22.864-3.4 8.562 19.7-3.795 18.7 0 0-40.087-1.2-45.73-2.4-2.53-.6-4.378-2.8-4.184-5.4z" fill="#015198"/><path d="M240.952 41.725c-2.335 0-11.675 7.9-16.637 23.5-4.282 13.4-7.298 48.4-8.173 72.8-.195 6.5 14.205 6.8 30.454 6.7 15.275-.1 38.627-.8 38.919-6.6.486-11.9-13.136-75.2-14.984-85.2-8.562-11.9-17.611-9.9-18.584-10.3l-10.995-.9z" fill="#005DAF"/><path d="M240.561 45.326s8.562 5.8 14.984-1.7l-1.751-6.1-.098-6.1-15.178 5s2.627 2.3 2.043 8.9z" fill="#F0A5A6"/><path d="M249.026 38.325c-1.167 2-2.724 5.7-4.865 6.6-1.07.5-2.335.6-3.502.1-.682-4.6-2.141-8.5-2.141-8.5l13.622-4.9c-.681 2.3-1.849 4.5-3.114 6.7z" fill="#CC7F7F"/><path d="M235.213 14.725c-4.767 16.2.779 23.8 3.308 24.5 5.352 1.4 15.179-5 17.514-11.9 2.432-6.9-.195-14.2-5.741-16.2-5.546-2-13.037-3.4-15.081 3.6z" fill="#F0A5A6"/><path d="M285.999 132.325c-.778-6.4-1.751-12.8-2.919-19.1-1.265-6.6-1.459-8.4-3.016-14.9-4.086-6-7.978-12.2-11.384-14.1-6.908-1.8-8.465-25.2-6.616-30 .876-2.3 1.751-4.9 3.016-7 .584-1 2.044-2 1.946-3.4-.194-2.1-2.821-2-4.573-1.8h-.194c-3.211-.4-5.254 1.7-6.422 4.5-.973 2.5-1.751 5.2-2.432 7.8-.779 3.4-.973 7.3-2.141 10.6-1.167 3.1-2.919 3.5-5.838 3.8-1.654.2-3.405.3-5.059.3-3.308 0-9.438.3-9.438-4.4-.097-6.7 2.432-14.1 5.351-20 .487-.9-.486-1.8-1.167-1.6-.876-.5-2.141-.4-3.211-.2-1.07.1-2.432.2-3.308.9-.778.5-1.07 1.4-1.362 2.3v.2c-1.557 3.4-2.822 5.7-3.795 9.4-.486 1.9-.876 5-1.167 6.9-.487 3.2.486 19.9-3.309 21.3-2.237.9-4.378 8.2-5.254 19.8-.583 7.5-2.724 45.3-2.918 51.8-.098 2.6 35.026-2.9 42.226-2.8 9.827.1 33.276 11.3 34.152 6.9 1.654-9.3-.487-21.9-1.168-27.2z" fill="#005DAF"/><path d="M287.071 159.425c1.751-9.2-.389-21.8-.973-27.1-.778-6.4-1.751-12.8-2.919-19.1-1.265-6.6-1.459-8.4-3.016-14.9-4.087-6-7.979-12.2-11.384-14.1-.292-.1-.681-.2-.973-.4-.389 10.8-.681 21.6-2.822 32.2-1.848 9.1-5.74 17.5-9.827 25.7 5.644 4.7 8.271 13.6 11.092 20 4.963 11.3 8.854 23.1 12.26 35 1.265 4.5 2.335 9 3.211 13.6 2.043-13.6 3.697-26.1 4.475-32 .876-7.1 1.071-13.2.779-18.5 0-.2.097-.3.097-.4z" fill="#015198"/><path d="M591.903 331.426c-21.892.7-45.827 3.1-70.929 5.7-44.465 4.5-90.39 9.3-126.681 3.9-40.087-5.9-61.395-22.8-67.136-53.2-10.605-56.1-29.87-98.3-57.502-125.2-25.881-25.3-52.638-30.6-66.357-31.5-2.141-.1-4.476-.2-7.005-.3-20.336-.7-51.082-1.8-66.746-35.5-10.8-27.7-24.714-45.2-41.254-51.9-13.038-5.3-22.865-1.6-23.352-1.4l3.211 8.6c.292-.1 30.065-10.9 53.124 48.3l.098.3c18 38.9 53.416 40.1 74.627 40.9 2.432.1 4.767.2 6.81.3 12.455.8 36.973 5.7 60.714 29 26.173 25.6 44.659 66.1 54.876 120.3 6.421 34.3 30.94 54.2 74.627 60.6 11.967 1.8 24.81 2.5 38.238 2.5 28.702 0 59.935-3.2 90.583-6.3 24.811-2.5 48.552-5 70.054-5.7v-9.4z" fill="#005DAF"/><path d="M249.223 144.626s4.573-2 5.254-1.9c.195 0 1.946-.4 3.017 2.7.389 1.1.583 2.5-.195 3.4-.486.5-2.822 1.1-4.281 1.8 0 .8-.097 1.2-.389 1.7-.779 1.4-1.46 2.1-3.308 3.2-1.849 1.1-4.281 2.9-6.519 3-2.141.1-1.946-1.2-1.946-1.2s-.779.3-1.557-.3c-.681-.6-.681-1.6-.681-1.6s-1.07-.1-1.654-.6c-.584-.6-.487-1.6-.487-1.6s-1.264.4-1.848-.6c-.584-1 .875-2.8 1.362-3.2l1.459-1.2s-2.043-1.1-1.459-1.8c.292-.4 2.822-.9 4.184-2.4 1.654-1.6 4.184-1.3 4.962-1 2.043.4 4.086 1.6 4.086 1.6z" fill="#F0A5A6"/><path d="M254.574 149.825l-2.821-5.1c-.973-1.7-.487-3.8.973-4.6 3.892-2 10.313-5.7 16.346-10.2 3.794-2.9 13.427-11.6 19.459-24.8 2.238-4.9 18.584 3.4 18.389 4.9-1.556 11.7-14.886 26.5-23.059 30.5l-6.033 3h-.097c-7.394 3.7-15.081 6.8-19.557 8.1-1.264.3-2.821-.4-3.6-1.8z" fill="#005DAF"/><path d="M64.844 53.325l16.93-2.4c1.751-.2 3.113-2.7 3.113-5.6 0-2.8-1.362-5.3-3.113-5.6l-16.93-2.4c-3.99-.6-7.686 3-7.686 7.9 0 5.1 3.697 8.7 7.686 8.1z" fill="#999"/><path d="M68.344 37.925l-3.405-.5c-3.99-.6-7.687 3-7.687 7.9 0 5 3.698 8.5 7.687 7.9l3.405-.4v-14.9z" fill="#CCC"/><path d="M23.493 67.225h30.162c5.351 0 9.632-4.5 9.632-9.9v-23.9c0-5.5-4.378-9.9-9.632-9.9H23.493c-5.352 0-9.633 4.5-9.633 9.9v23.9c0 5.5 4.281 9.9 9.633 9.9z" fill="url(#paint0_linear)"/><path d="M5.297 71.725h21.406c2.724 0 4.864-2.3 4.864-5v-42.7c0-2.8-2.237-5-4.864-5H5.297c-2.724 0-4.865 2.3-4.865 5v42.7c0 2.8 2.14 5 4.865 5z" fill="#999"/><path d="M26.702 19.025h-5.157v52.8h5.157c2.724 0 4.865-2.3 4.865-5v-42.8c.097-2.8-2.14-5-4.865-5z" fill="gray"/><path d="M28.258 76.425h4.086c1.46 0 2.627-1.2 2.627-2.7v-56.7c0-1.5-1.167-2.7-2.627-2.7h-4.086c-1.46 0-2.627 1.2-2.627 2.7v56.8c.097 1.4 1.265 2.6 2.627 2.6z" fill="#BBBDBF"/><path d="M54.336 34.425H38.574a.884.884 0 01-.876-.9c0-.5.39-.9.876-.9h15.762c.486 0 .876.4.876.9s-.39.9-.876.9zM54.336 39.225H38.574a.884.884 0 01-.876-.9c0-.5.39-.9.876-.9h15.762c.486 0 .876.4.876.9s-.39.9-.876.9zM54.336 43.925H38.574a.884.884 0 01-.876-.9c0-.5.39-.9.876-.9h15.762c.486 0 .876.4.876.9s-.39.9-.876.9zM54.336 48.725H38.574a.884.884 0 01-.876-.9c0-.5.39-.9.876-.9h15.762c.486 0 .876.4.876.9 0 .4-.39.9-.876.9zM54.336 53.425H38.574a.884.884 0 01-.876-.9c0-.5.39-.9.876-.9h15.762c.486 0 .876.4.876.9s-.39.9-.876.9zM54.336 58.125H38.574a.884.884 0 01-.876-.9c0-.5.39-.9.876-.9h15.762c.486 0 .876.4.876.9s-.39.9-.876.9z" fill="#999"/><path d="M122.348 95.626c.584-.6.973-1.4.876-2.2-.195-.9-.681-1.2-1.362-1.2.583-.7.875-1.5.486-2.4-.389-1-1.07-1.2-1.946-1.1.195-.4.292-.8.195-1.2-.098-.8-.779-1.2-1.46-1.3-2.432-.5-4.378 1.8-5.351 3.8-.097.2 0 .4.097.5 0 .1.097.2.195.2 2.238 1.1 3.503 3.7 4.767 5.8.681 1.2.973 2.6 2.433 2.2 2.14-.6 2.432-2.8 1.07-3.1z" fill="#F0A5A6"/><path d="M255.059 11.525c-.681.7-1.264 1.5-1.848 2.5-.779 1.3-1.557.5-2.238 2 .292.2.194 2.7.486 2.9 1.168 1 2.238 2.5 2.238 2.5.876-5.5 3.503-.9 3.697.8.195 1.7-1.751 4.6-.389 4.6 1.363 0 2.627-4.5 2.627-4.5-.292-7.3-1.751-7.1-3.502-9.7-.098-.4-.584-.8-1.071-1.1z" fill="#0C232B"/><path d="M252.921 19.925c-.389.2-2.14-4.6-2.53-4.6.292.9 1.654 7.3 2.044 8.6.583 2.1 1.848 2.3 1.946 2 .097-.5-.292-1-.39-1.5-.292-1-.097-2.2-.194-3.2 0-.2-.292-1.6-.292-1.6l-.584.3z" fill="#0C232B"/><path d="M235.601 15.725c.584.3 1.07.6 1.751.8h27.73c.389-5.1-2.627-10.9-6.519-13.5-5.351-3.6-14.108-3.7-19.168-1.8-3.308 1.2-9.632 12-3.794 14.5z" fill="#00FFF0"/><path d="M235.019 16.525h15.859c-.097-1.6-3.211-2.4-4.67-2.8-6.714-1.9-13.524-3.8-20.238-5.8-2.238-.6-4.573-1.3-6.811-1.4-.486 0-1.07 0-1.459.3-.779.5-.876 1.8-.487 2.6.39.9 1.168 1.5 1.946 2 4.379 3 8.465 5.3 13.622 5.1.194.1 1.654-.1 2.238 0z" fill="#00E6D8"/><defs><linearGradient id="paint0_linear" x1="13.819" y1="45.382" x2="63.367" y2="45.382" gradientUnits="userSpaceOnUse"><stop offset=".198" stop-color="#666"/><stop offset=".57" stop-color="#CCC"/></linearGradient><filter id="filter0_f" x="147.883" y="318.426" width="218.054" height="65" filterUnits="userSpaceOnUse" color-interpolation-filters="sRGB"><feFlood flood-opacity="0" result="BackgroundImageFix"/><feBlend in="SourceGraphic" in2="BackgroundImageFix" result="shape"/><feGaussianBlur stdDeviation="10" result="effect1_foregroundBlur"/></filter></defs></svg>9.426C236.477 149.026 237.45 148.226 237.45 148.226C237.45 148.226 235.407 147.126 235.991 146.426C236.283 146.026 238.813 145.526 240.175 144.026C241.829 142.426 244.359 142.726 245.137 143.026C247.18 143.426 249.223 144.626 249.223 144.626Z" fill="#F0A5A6"/>
<path d="M254.574 149.825L251.753 144.725C250.78 143.025 251.266 140.925 252.726 140.125C256.618 138.125 263.039 134.425 269.072 129.925C272.866 127.025 282.499 118.325 288.531 105.125C290.769 100.225 307.115 108.525 306.92 110.025C305.364 121.725 292.034 136.525 283.861 140.525L277.828 143.525H277.731C270.337 147.225 262.65 150.325 258.174 151.625C256.91 151.925 255.353 151.225 254.574 149.825Z" fill="#005DAF"/>
<path d="M64.844 53.3251L81.7736 50.9251C83.525 50.7251 84.8871 48.2251 84.8871 45.3251C84.8871 42.5251 83.525 40.0251 81.7736 39.7251L64.844 37.3251C60.8548 36.7251 57.1575 40.3251 57.1575 45.2251C57.1575 50.3251 60.8548 53.9251 64.844 53.3251Z" fill="#999999"/>
<path d="M68.3443 37.9248L64.9389 37.4248C60.9497 36.8248 57.2524 40.4248 57.2524 45.3248C57.2524 50.3248 60.9497 53.8248 64.9389 53.2248L68.3443 52.8248V37.9248Z" fill="#CCCCCC"/>
<path d="M23.4926 67.2254H53.6547C59.0061 67.2254 63.2871 62.7254 63.2871 57.3254V33.4254C63.2871 27.9254 58.9088 23.5254 53.6547 23.5254H23.4926C18.1412 23.5254 13.8601 28.0254 13.8601 33.4254V57.3254C13.8601 62.8254 18.1412 67.2254 23.4926 67.2254Z" fill="url(#paint0_linear)"/>
<path d="M5.29724 71.7254H26.7026C29.427 71.7254 31.5675 69.4254 31.5675 66.7254V24.0254C31.5675 21.2254 29.3297 19.0254 26.7026 19.0254H5.29724C2.57291 19.0254 0.432373 21.3254 0.432373 24.0254V66.7254C0.432373 69.5254 2.57291 71.7254 5.29724 71.7254Z" fill="#999999"/>
<path d="M26.7019 19.0254H21.5452V71.8254H26.7019C29.4262 71.8254 31.5667 69.5254 31.5667 66.8254V24.0254C31.664 21.2254 29.4262 19.0254 26.7019 19.0254Z" fill="#808080"/>
<path d="M28.2579 76.4252H32.3444C33.8039 76.4252 34.9714 75.2252 34.9714 73.7252V17.0252C34.9714 15.5252 33.8039 14.3252 32.3444 14.3252H28.2579C26.7984 14.3252 25.6309 15.5252 25.6309 17.0252V73.8252C25.7282 75.2252 26.8957 76.4252 28.2579 76.4252Z" fill="#BBBDBF"/>
<path d="M54.3358 34.425H38.5737C38.0872 34.425 37.698 34.025 37.698 33.525C37.698 33.025 38.0872 32.625 38.5737 32.625H54.3358C54.8223 32.625 55.2115 33.025 55.2115 33.525C55.2115 34.025 54.8223 34.425 54.3358 34.425Z" fill="#999999"/>
<path d="M54.3358 39.2248H38.5737C38.0872 39.2248 37.698 38.8248 37.698 38.3248C37.698 37.8248 38.0872 37.4248 38.5737 37.4248H54.3358C54.8223 37.4248 55.2115 37.8248 55.2115 38.3248C55.2115 38.8248 54.8223 39.2248 54.3358 39.2248Z" fill="#999999"/>
<path d="M54.3358 43.925H38.5737C38.0872 43.925 37.698 43.525 37.698 43.025C37.698 42.525 38.0872 42.125 38.5737 42.125H54.3358C54.8223 42.125 55.2115 42.525 55.2115 43.025C55.2115 43.525 54.8223 43.925 54.3358 43.925Z" fill="#999999"/>
<path d="M54.3358 48.7248H38.5737C38.0872 48.7248 37.698 48.3248 37.698 47.8248C37.698 47.3248 38.0872 46.9248 38.5737 46.9248H54.3358C54.8223 46.9248 55.2115 47.3248 55.2115 47.8248C55.2115 48.2248 54.8223 48.7248 54.3358 48.7248Z" fill="#999999"/>
<path d="M54.3358 53.425H38.5737C38.0872 53.425 37.698 53.025 37.698 52.525C37.698 52.025 38.0872 51.625 38.5737 51.625H54.3358C54.8223 51.625 55.2115 52.025 55.2115 52.525C55.2115 53.025 54.8223 53.425 54.3358 53.425Z" fill="#999999"/>
<path d="M54.3358 58.1252H38.5737C38.0872 58.1252 37.698 57.7252 37.698 57.2252C37.698 56.7252 38.0872 56.3252 38.5737 56.3252H54.3358C54.8223 56.3252 55.2115 56.7252 55.2115 57.2252C55.2115 57.7252 54.8223 58.1252 54.3358 58.1252Z" fill="#999999"/>
<path d="M122.348 95.6256C122.932 95.0256 123.321 94.2256 123.224 93.4256C123.029 92.5256 122.543 92.2256 121.862 92.2256C122.445 91.5256 122.737 90.7256 122.348 89.8256C121.959 88.8256 121.278 88.6256 120.402 88.7256C120.597 88.3256 120.694 87.9256 120.597 87.5256C120.499 86.7256 119.818 86.3256 119.137 86.2256C116.705 85.7256 114.759 88.0256 113.786 90.0256C113.689 90.2256 113.786 90.4256 113.883 90.5256C113.883 90.6256 113.98 90.7256 114.078 90.7256C116.316 91.8256 117.581 94.4256 118.845 96.5256C119.526 97.7256 119.818 99.1256 121.278 98.7256C123.418 98.1256 123.71 95.9256 122.348 95.6256Z" fill="#F0A5A6"/>
<path d="M255.059 11.5254C254.378 12.2254 253.795 13.0254 253.211 14.0254C252.432 15.3254 251.654 14.5254 250.973 16.0254C251.265 16.2254 251.167 18.7254 251.459 18.9254C252.627 19.9254 253.697 21.4254 253.697 21.4254C254.573 15.9254 257.2 20.5254 257.394 22.2254C257.589 23.9254 255.643 26.8254 257.005 26.8254C258.368 26.8254 259.632 22.3254 259.632 22.3254C259.34 15.0254 257.881 15.2254 256.13 12.6254C256.032 12.2254 255.546 11.8254 255.059 11.5254Z" fill="#0C232B"/>
<path d="M252.921 19.9252C252.532 20.1252 250.781 15.3252 250.391 15.3252C250.683 16.2252 252.045 22.6252 252.435 23.9252C253.018 26.0252 254.283 26.2252 254.381 25.9252C254.478 25.4252 254.089 24.9252 253.991 24.4252C253.699 23.4252 253.894 22.2252 253.797 21.2252C253.797 21.0252 253.505 19.6252 253.505 19.6252C253.31 19.7252 253.116 19.8252 252.921 19.9252Z" fill="#0C232B"/>
<path d="M235.601 15.725C236.185 16.025 236.671 16.325 237.352 16.525H265.082C265.471 11.425 262.455 5.62503 258.563 3.02503C253.212 -0.574964 244.455 -0.674963 239.395 1.22504C236.087 2.42503 229.763 13.225 235.601 15.725Z" fill="#00FFF0"/>
<path d="M235.019 16.5254H250.878C250.781 14.9254 247.667 14.1254 246.208 13.7254C239.494 11.8254 232.684 9.92539 225.97 7.92539C223.732 7.32539 221.397 6.62539 219.159 6.52539C218.673 6.52539 218.089 6.52539 217.7 6.82539C216.921 7.32539 216.824 8.62539 217.213 9.42539C217.603 10.3254 218.381 10.9254 219.159 11.4254C223.538 14.4254 227.624 16.7254 232.781 16.5254C232.975 16.6254 234.435 16.4254 235.019 16.5254Z" fill="#00E6D8"/>
<defs>
<filter id="filter0_f" x="147.883" y="318.426" width="218.054" height="65" filterUnits="userSpaceOnUse" color-interpolation-filters="sRGB">
<feFlood flood-opacity="0" result="BackgroundImageFix"/>
<feBlend mode="normal" in="SourceGraphic" in2="BackgroundImageFix" result="shape"/>
<feGaussianBlur stdDeviation="10" result="effect1_foregroundBlur"/>
</filter>
<linearGradient id="paint0_linear" x1="13.819" y1="45.3824" x2="63.3666" y2="45.3824" gradientUnits="userSpaceOnUse">
<stop offset="0.1983" stop-color="#666666"/>
<stop offset="0.5698" stop-color="#CCCCCC"/>
</linearGradient>
</defs>
</svg>
