<svg width="551" height="387" viewBox="0 0 551 387" fill="none" xmlns="http://www.w3.org/2000/svg"><g opacity=".2" filter="url(#filter0_f)"><path d="M337.995 366.601c49.169 0 89.027-5.597 89.027-12.5 0-6.904-39.858-12.5-89.027-12.5-49.168 0-89.027 5.596-89.027 12.5 0 6.903 39.859 12.5 89.027 12.5z" fill="#16325C"/></g><path d="M404.253 77.2s-4.767 1.5-5.254 2.1c-.194.2-1.654 1-.583 4.1.389 1.1 1.167 2.3 2.335 2.4.681.1 2.821-1 4.378-1.6.487.7.876.9 1.362 1.1 1.46.5 2.433.6 4.573.2 2.141-.4 5.157-.7 6.811-2.1 1.751-1.4.681-2.2.681-2.2s.876-.3.973-1.2c.097-1-.486-1.7-.486-1.7s.778-.8.875-1.6c.098-.8-.583-1.6-.583-1.6s1.264-.5 1.07-1.7c-.195-1.1-2.433-1.5-3.114-1.5s-1.946.1-1.946.1.779-2.2-.097-2.3c-.486-.1-2.724 1.2-4.67 1-2.335-.1-3.892 1.8-4.379 2.5-1.167 1.8-1.946 4-1.946 4z" fill="#F0A5A6"/><path d="M337.798 329.501l-4.573 17.5s5.06 3.6 9.828.7l3.21-15.6s-8.756-3-8.465-2.6z" fill="#231F20"/><path d="M342.469 338.9s-1.654 4.8.875 6.6c2.433 1.7 5.157 1.3 9.341.7 5.448-.8 13.816 7 3.211 6.3-1.557-.1-10.217-.8-14.303-4.2-1.946-1.7-1.654-5.6-1.07-6.8l1.946-2.6z" fill="#231F20"/><path d="M353.953 150.4c-10.898-11-23.06-16.8-34.152-7.5l-3.211 2.6c-16.248 13.5 28.411 82.3 37.265 94.2 11.287 15.2 32.887 36.2 39.308 25.9 7.395-11.9 5.157-23.8 5.157-25.9 0-16.9-7.297-32.1-14.692-45.8-6.13-11.3-17.124-30.8-29.675-43.5z" fill="#015198"/><path d="M345.291 340.5c8.465-9.5 25.297-31.2 35.222-50.5l.097-.1 13.038-23.9c4.767-11.8.778-17.8-5.157-21l-22.767 7.6c-10.314 19.2-27.146 69-30.26 81.4 0-.1 5.935 6.6 9.827 6.5z" fill="#015198"/><path d="M298.88 332.001l-6.713 16.7s4.573 4.2 9.632 1.9l5.157-15s-8.27-4-8.076-3.6z" fill="#231F20"/><path d="M301.312 341.301s-1.362 4.9 1.265 6.5c2.627 1.6 5.156 1 9.34.2 5.352-1.1 14.206 6.1 3.6 6.1-1.557 0-10.313-.2-14.497-3.3-2.043-1.5-2.043-5.5-1.46-6.7l1.752-2.8z" fill="#231F20"/><path d="M304.427 345.501c9.827-10.7 29.578-35 42.13-56.5 0-.1.097-.1.097-.2l5.935-10c6.908-11.6 7.881-23.8 2.335-27.2l-1.848-1.2c-5.546-3.5-20.627-1.7-20.725-1.6-26.075 43.5-32.302 75.8-36.973 89.6 0 0 5.06 7.2 9.049 7.1z" fill="#005DAF"/><path d="M345.877 141.701c-7.006-14-23.741-10.7-37.168-5.5l-3.794 1.5c-19.557 7.5-12.163 32.7-4.573 51.2 5.74 14 28.994 70.7 38.14 78.3 3.6 3 13.914 3.1 15.762 2.3 1.946-.7 3.503-3.3 4.281-8.1 2.53-14.8 1.46-40.9-.097-56.5-1.265-12.8-4.475-47.1-12.551-63.2z" fill="#005DAF"/><path d="M333.908 14.8c3.892 6.9 3.503 19.8.973 21-5.448 2.6-17.124-2.2-21.016-9.1-3.892-6.9-2.53-15.2 3.016-18.5 5.449-3.2 13.135-.3 17.027 6.6z" fill="#F0A5A6"/><path d="M327.486 45.601h-10.508v-16.4l12.064.7c.098 0-3.016 8.6-1.556 15.7zM332.157 15.8s4.768 2.4 6.325 2.6c1.557.2 2.335.8.876 2.6-1.363 1.8-3.795 2.5-3.795 2.5l-3.406-7.7z" fill="#F0A5A6"/><path d="M402.696 79.4c-.194-1-1.167-1.7-2.238-1.6-6.421.9-24.227 4.2-25.978 5.1-1.654.8-22.281-13.6-23.449-15.2-7.881-2.1 0 15.3-3.308 20 2.53 4.5 17.806 9.1 17.806 9.1 9.243 2.3 30.454-7.4 37.07-11.1.778-.4 1.265-1.4.973-2.3l-.876-4z" fill="#015198"/><path d="M356.187 85c-1.556 1.7-3.502 3.9-5.156 5.6-8.368-4.4-13.233-5.6-23.157-14.3-9.049-8.8-17.708-11.5-15.86-21.4 1.946-7.5 12.357-9.8 12.454-9.8 10.606 4.8 27.146 22 37.363 33.9-1.557 2.3-3.795 4-5.644 6z" fill="#015198"/><path d="M313.672 40.9c1.557-1 .194-2.3 1.557-2.3l11.286 1.3c3.503-.1 1.751 1.8 2.335 2.3 15.373 13.7 17.125 54.9 22.768 89.701.097.7.194 1.3.194 2 .487 1.1.681 2.3.584 3.5-.876 7.3-14.205 14-30.746 15-14.789.9-27.438-3-30.746-9.2v-.1c-.097-.1-.097-.3-.194-.4-.779-1.6-1.071-3.6-1.071-5.7.292-13.6-.291-26.5 1.46-37.9 5.351-52.5 21.989-58.3 22.573-58.2z" fill="#ECF4FA"/><path d="M316.396 28.4s1.557-.2 1.557-3.1c0-2.1 1.654-4.1 2.53-4.3.875-.2 3.6-.8 4.184-4.8.194-1.4-.292-3.6.681-4.8.292-.4.778-.6 1.167-.7 3.114-1.1 6.714-.2 9.535-2.2 2.725-1.9 2.238-6.4-.681-7.4-3.016-1-6.713 4.4-9.438 3.7-1.362-.3-2.14-1.6-3.21-2.4-1.363-.9-3.114-1.2-4.671-1.2-3.405.1-6.616 1.5-8.27 4.7-.973 1.9-1.849 4-3.989 4.7-1.168.4-2.335.5-3.503.8-2.043.6-3.892 1.9-4.962 3.7-2.432 4.2.681 9 4.476 11 3.211 1.6 2.821 3.9 2.627 5.7-.195 3.4 3.892 7.9 9.34 4.3 1.168 1.2 3.114.7 3.114.7l1.265-3.7c.194.1-1.654-2.7-1.752-4.7z" fill="#0C232B"/><path d="M316.687 23.1c.778 2.2 2.335 3.6 3.503 3.2 1.167-.4 1.557-2.6.778-4.8-.778-2.2-2.335-3.6-3.503-3.2-1.167.4-1.556 2.6-.778 4.8z" fill="#F0A5A6"/><path d="M406.686 77.2c-4.572 20-9.729 42.7-21.989 55.3-32.886 33.8-77.351 34.3-152.854 23.1-46.216-6.8-83.967-.6-115.394 19-26.563 16.6-48.26 42.9-66.552 80.4C30.146 295.7-7.605 319.2-51 332.2v9.5c46.605-13.5 87.47-38.5 108.876-82.6 37.654-77.4 90.875-106.5 172.605-94.4 31.914 4.7 65.384 8.6 93.697 5.4 28.022-3.2 49.233-13.1 66.746-31.1 14.108-14.4 19.557-38.5 24.422-59.7 6.519-28.9 35.513-24.8 36.778-24.6l.681-4.5.681-4.5c-13.232-2.2-40.086 1.7-46.8 31.5z" fill="#ECF4FA"/><path d="M548.547 35.4h-28.119c-1.362 0-2.433-1.1-2.433-2.5s1.071-2.5 2.433-2.5h28.119c1.362 0 2.432 1.1 2.432 2.5s-1.07 2.5-2.432 2.5zM548.547 66.7h-28.119c-1.362 0-2.433-1.1-2.433-2.5s1.071-2.5 2.433-2.5h28.119c1.362 0 2.432 1.1 2.432 2.5s-1.07 2.5-2.432 2.5z" fill="#A8B7C7"/><path d="M463.021 57.1l-16.93-2.4c-1.751-.2-3.113-2.7-3.113-5.6 0-2.8 1.362-5.3 3.113-5.6l16.93-2.4c3.989-.6 7.686 3 7.686 7.9.098 5.1-3.697 8.7-7.686 8.1z" fill="#999"/><path d="M504.47 70.4h-30.162c-5.351 0-9.632-4.5-9.632-9.9V36.6c0-5.5 4.378-9.9 9.632-9.9h30.162c5.352 0 9.633 4.5 9.633 9.9v23.9c0 5.5-4.379 9.9-9.633 9.9z" fill="url(#paint0_linear)"/><path d="M522.663 74.9h-21.406c-2.724 0-4.865-2.3-4.865-5V27.2c0-2.8 2.238-5 4.865-5h21.406c2.724 0 4.865 2.3 4.865 5v42.7c0 2.8-2.238 5-4.865 5z" fill="#999"/><path d="M499.7 79.6h-4.086c-1.459 0-2.627-1.2-2.627-2.7V20.2c0-1.5 1.168-2.7 2.627-2.7h4.086c1.46 0 2.628 1.2 2.628 2.7V77c-.098 1.4-1.265 2.6-2.628 2.6z" fill="#BBBDBF"/><path d="M464.481 41.201h-1.459l-4.184.6v14.7l4.184.6c.486.1.973.1 1.459 0v-15.9z" fill="#CCC"/><path d="M504.958 22.3h-2.724v52.8h2.724V22.3z" fill="gray"/><path d="M399.585 96.2s-4.962.8-5.449 1.2c-.195.2-1.849.7-1.168 3.9.195 1.2.876 2.4 1.946 2.7.681.2 2.919-.6 4.573-.9.39.7.681 1 1.168 1.3 1.362.7 2.335 1 4.476.9 2.14-.1 5.156.1 7.005-1 1.946-1.1.973-2.1.973-2.1s.876-.1 1.168-1.1c.291-.9-.292-1.7-.292-1.7s.875-.7 1.07-1.5c.195-.8-.389-1.6-.389-1.6s1.265-.3 1.265-1.5-2.238-1.9-2.822-1.9c-.681-.1-1.849-.2-1.849-.2s1.071-2 .292-2.3c-.389-.1-2.821.7-4.767.3-2.238-.5-4.184 1.2-4.768 1.8-1.265 1.6-2.432 3.7-2.432 3.7zM417.292 83.801c1.459-.6.876-1.9.778-3.2-.097-2.4-.486-5.3.681-7.5.098-.1.098-.2 0-.3.098-.2 0-.4-.194-.5-1.849-1-4.768-1.8-6.422 0-.486.5-.778 1.2-.486 1.9.194.4.486.7.875.9-.681.4-1.167 1-.973 2 .195 1 .973 1.5 1.752 1.7-.487.4-.876 1-.487 1.8.292.7 1.168 1.1 1.946 1.3-.778 1.1.681 2.6 2.53 1.9z" fill="#F0A5A6"/><path d="M332.35 102.7c-7.784-7.5-16.346-16.6-22.573-25.6l-.098-.1-5.059-7.1c-5.935-8.3 2.238-20.6 2.238-20.6 5.643-4.3 14.4-4.7 20.238 3.6l5.059 7.1.097.1c5.157 7.1 10.022 15.7 14.108 24-5.546 5.4-10.118 11.9-14.01 18.6z" fill="#015198"/><path d="M342.666 97.4c1.363 0 2.725-.1 4.087-.1-.681-4.9-1.362-9.6-2.238-14.2-17.027 2.5-34.346 2.3-51.081-1.1-.681 3.6-1.265 7.6-1.849 11.9 16.346 5.3 34.249 4.1 51.081 3.5zM328.848 122.901c7.103-.8 14.108-2.8 20.627-5.6-.487-3.3-.876-6.6-1.362-9.9-1.46.1-2.919.1-4.379.2-17.513.6-36.292 1.8-53.319-3.4-.389 3.9-.583 7.9-.681 12 12.26 5.9 25.492 8.3 39.114 6.7z" fill="#00FFF0"/><path d="M396.956 98c-.097-1-.973-1.7-1.848-1.5-7.979 1.6-27.827 2.8-31.622 3.8-5.059 1.3-10.313-1.2-12.454-6.1-4.767-10.9-11.481-24-18.876-34.2l-.097-.1L327 52.8c-3.6-3.6-10.411-4.3-16.152 0 0 0-8.756 12-6.324 17l5.06 7.1.097.1c11.481 16.4 30.648 33.6 38.724 39.6 3.503 6.5 17.708 4.6 29.578-1.3 0 0 17.417-9 19.265-10.7l-.292-6.6z" fill="#005DAF"/><defs><linearGradient id="paint0_linear" x1="464.569" y1="48.557" x2="514.117" y2="48.557" gradientUnits="userSpaceOnUse"><stop offset=".307" stop-color="#CCC"/><stop offset=".885" stop-color="#666"/></linearGradient><filter id="filter0_f" x="228.968" y="321.601" width="218.054" height="65" filterUnits="userSpaceOnUse" color-interpolation-filters="sRGB"><feFlood flood-opacity="0" result="BackgroundImageFix"/><feBlend in="SourceGraphic" in2="BackgroundImageFix" result="shape"/><feGaussianBlur stdDeviation="10" result="effect1_foregroundBlur"/></filter></defs></svg>22 26.7002 514.103 31.2002 514.103 36.6002V60.5002C514.103 66.0002 509.724 70.4002 504.47 70.4002Z" fill="url(#paint0_linear)"/>
<path d="M522.663 74.9002H501.257C498.533 74.9002 496.392 72.6002 496.392 69.9002V27.2002C496.392 24.4002 498.63 22.2002 501.257 22.2002H522.663C525.387 22.2002 527.528 24.5002 527.528 27.2002V69.9002C527.528 72.7002 525.29 74.9002 522.663 74.9002Z" fill="#999999"/>
<path d="M499.7 79.6H495.614C494.155 79.6 492.987 78.4 492.987 76.9V20.2C492.987 18.7 494.155 17.5 495.614 17.5H499.7C501.16 17.5 502.328 18.7 502.328 20.2V77C502.23 78.4 501.063 79.6 499.7 79.6Z" fill="#BBBDBF"/>
<path d="M464.481 41.2012C463.995 41.2012 463.508 41.2012 463.022 41.2012L458.838 41.8012V56.5012L463.022 57.1011C463.508 57.2011 463.995 57.2011 464.481 57.1011V41.2012Z" fill="#CCCCCC"/>
<path d="M504.958 22.3008H502.234V75.1008H504.958V22.3008Z" fill="#808080"/>
<path d="M399.585 96.2003C399.585 96.2003 394.623 97.0003 394.136 97.4003C393.941 97.6003 392.287 98.1003 392.968 101.3C393.163 102.5 393.844 103.7 394.914 104C395.595 104.2 397.833 103.4 399.487 103.1C399.877 103.8 400.168 104.1 400.655 104.4C402.017 105.1 402.99 105.4 405.131 105.3C407.271 105.2 410.287 105.4 412.136 104.3C414.082 103.2 413.109 102.2 413.109 102.2C413.109 102.2 413.985 102.1 414.277 101.1C414.568 100.2 413.985 99.4003 413.985 99.4003C413.985 99.4003 414.86 98.7003 415.055 97.9003C415.25 97.1003 414.666 96.3003 414.666 96.3003C414.666 96.3003 415.931 96.0003 415.931 94.8003C415.931 93.6003 413.693 92.9003 413.109 92.9003C412.428 92.8003 411.26 92.7003 411.26 92.7003C411.26 92.7003 412.331 90.7003 411.552 90.4003C411.163 90.3003 408.731 91.1003 406.785 90.7003C404.547 90.2003 402.601 91.9003 402.017 92.5003C400.752 94.1003 399.585 96.2003 399.585 96.2003Z" fill="#F0A5A6"/>
<path d="M417.292 83.8011C418.751 83.2011 418.168 81.9011 418.07 80.6011C417.973 78.2011 417.584 75.3011 418.751 73.1011C418.849 73.0011 418.849 72.9011 418.751 72.8011C418.849 72.6011 418.751 72.4011 418.557 72.3011C416.708 71.3011 413.789 70.5011 412.135 72.3011C411.649 72.8011 411.357 73.5011 411.649 74.2011C411.843 74.6011 412.135 74.9011 412.524 75.1011C411.843 75.5011 411.357 76.1011 411.551 77.1011C411.746 78.1011 412.524 78.6011 413.303 78.8011C412.816 79.2011 412.427 79.8011 412.816 80.6011C413.108 81.3011 413.984 81.7011 414.762 81.9011C413.984 83.0011 415.443 84.5011 417.292 83.8011Z" fill="#F0A5A6"/>
<path d="M332.35 102.7C324.566 95.2003 316.004 86.1003 309.777 77.1003L309.679 77.0003L304.62 69.9003C298.685 61.6003 306.858 49.3003 306.858 49.3003C312.501 45.0003 321.258 44.6003 327.096 52.9003L332.155 60.0003L332.252 60.1003C337.409 67.2003 342.274 75.8003 346.36 84.1003C340.814 89.5003 336.242 96.0003 332.35 102.7Z" fill="#015198"/>
<path d="M342.666 97.4C344.029 97.4 345.391 97.3 346.753 97.3C346.072 92.4 345.391 87.7 344.515 83.1C327.488 85.6 310.169 85.4 293.434 82C292.753 85.6 292.169 89.6 291.585 93.9C307.931 99.2 325.834 98 342.666 97.4Z" fill="#00FFF0"/>
<path d="M328.848 122.901C335.951 122.101 342.956 120.101 349.475 117.301C348.988 114.001 348.599 110.701 348.113 107.401C346.653 107.501 345.194 107.501 343.734 107.601C326.221 108.201 307.442 109.401 290.415 104.201C290.026 108.101 289.832 112.101 289.734 116.201C301.994 122.101 315.226 124.501 328.848 122.901Z" fill="#00FFF0"/>
<path d="M396.956 98.0003C396.859 97.0003 395.983 96.3003 395.108 96.5003C387.129 98.1003 367.281 99.3003 363.486 100.3C358.427 101.6 353.173 99.1003 351.032 94.2003C346.265 83.3003 339.551 70.2003 332.156 60.0003L332.059 59.9003L327 52.8003C323.4 49.2003 316.589 48.5003 310.848 52.8003C310.848 52.8003 302.092 64.8003 304.524 69.8003L309.584 76.9003L309.681 77.0003C321.162 93.4003 340.329 110.6 348.405 116.6C351.908 123.1 366.113 121.2 377.983 115.3C377.983 115.3 395.4 106.3 397.248 104.6L396.956 98.0003Z" fill="#005DAF"/>
<defs>
<filter id="filter0_f" x="228.968" y="321.601" width="218.054" height="65" filterUnits="userSpaceOnUse" color-interpolation-filters="sRGB">
<feFlood flood-opacity="0" result="BackgroundImageFix"/>
<feBlend mode="normal" in="SourceGraphic" in2="BackgroundImageFix" result="shape"/>
<feGaussianBlur stdDeviation="10" result="effect1_foregroundBlur"/>
</filter>
<linearGradient id="paint0_linear" x1="464.569" y1="48.5572" x2="514.117" y2="48.5572" gradientUnits="userSpaceOnUse">
<stop offset="0.3073" stop-color="#CCCCCC"/>
<stop offset="0.8855" stop-color="#666666"/>
</linearGradient>
</defs>
</svg>
