<svg width="542" height="384" viewBox="0 0 542 384" fill="none" xmlns="http://www.w3.org/2000/svg">
  <g opacity="0.2" filter="url(#filter0_f)">
    <path
      d="M256.91 363.426C306.078 363.426 345.937 357.829 345.937 350.926C345.937 344.022 306.078 338.426 256.91 338.426C207.741 338.426 167.883 344.022 167.883 350.926C167.883 357.829 207.741 363.426 256.91 363.426Z"
      fill="#16325C" />
  </g>
  <path
    d="M233.751 24.8259C233.751 24.8259 228.691 18.7259 234.334 9.72593C238.226 3.72594 242.313 6.22593 242.118 9.22593C242.021 12.2259 238.518 20.6259 233.751 24.8259Z"
    fill="#0C232B" />
  <path
    d="M314.801 316.525L320.931 330.125C320.931 330.125 318.888 335.925 313.536 336.425L308.379 322.825C308.282 322.925 314.801 316.125 314.801 316.525Z"
    fill="#231F20" />
  <path
    d="M310.325 327.725C310.325 327.725 313.049 332.225 312.076 335.025C311.103 337.825 308.768 339.125 305.071 341.125C300.303 343.725 297.968 354.825 306.044 348.025C307.211 347.025 313.73 341.325 315.092 336.225C315.773 333.725 313.244 330.725 312.173 330.225L310.325 327.725Z"
    fill="#231F20" />
  <path
    d="M307.112 330.325C296.994 321.825 257.393 270.825 257.393 270.825C249.804 261.225 249.318 253.425 253.988 249.525L255.545 248.225C260.215 244.425 274.031 244.125 274.129 244.225C301.177 278.425 313.048 304.425 319.275 317.225C319.956 318.625 319.858 320.225 319.08 321.625C317.037 324.925 312.658 330.625 307.112 330.325Z"
    fill="#015198" />
  <path
    d="M221.2 330.725L219.449 345.625C219.449 345.625 214.779 349.525 209.914 347.025L212.444 332.625C212.444 332.625 221.395 330.325 221.2 330.725Z"
    fill="#231F20" />
  <path
    d="M211.763 337.825C211.763 337.825 211.763 343.125 209.525 345.025C207.19 346.925 204.563 346.725 200.476 346.425C195.125 346.025 187.438 354.225 197.752 352.825C199.309 352.625 207.676 351.325 211.471 347.625C213.319 345.825 212.736 342.025 212.055 340.925L211.763 337.825Z"
    fill="#231F20" />
  <path
    d="M209.913 336.125C201.642 317.025 199.404 260.525 200.961 249.725L230.248 247.725C230.345 266.425 227.523 315.225 224.507 331.325C224.215 333.125 222.853 334.625 221.102 335.125C217.696 336.125 211.956 337.425 209.913 336.125Z"
    fill="#005DAF" />
  <path
    d="M129.353 86.9252C129.353 86.9252 134.316 86.0253 134.899 86.2253C135.094 86.3253 136.845 86.3252 137.234 89.5252C137.429 90.7252 137.234 92.1252 136.262 92.8252C135.678 93.2252 133.245 93.3252 131.689 93.5252C131.591 94.3252 131.299 94.7252 130.91 95.1252C129.84 96.2252 129.062 96.8252 127.018 97.5252C124.975 98.2252 122.153 99.3252 120.013 98.9252C117.872 98.5252 118.359 97.2252 118.359 97.2252C118.359 97.2252 117.483 97.3252 116.899 96.6252C116.316 95.8252 116.607 94.9252 116.607 94.9252C116.607 94.9252 115.537 94.6252 115.148 93.9252C114.759 93.2252 114.953 92.2252 114.953 92.2252C114.953 92.2252 113.591 92.3252 113.299 91.2252C113.008 90.1253 114.759 88.7252 115.343 88.4252C115.926 88.1252 117.094 87.6253 117.094 87.6253C117.094 87.6253 115.44 86.0252 116.121 85.5252C116.51 85.2252 119.04 85.2253 120.791 84.2253C122.737 83.0253 125.072 83.9253 125.851 84.3253C127.699 85.3253 129.353 86.9252 129.353 86.9252Z"
    fill="#F0A5A6" />
  <path
    d="M267.221 19.125C265.469 14.725 261.188 16.425 261.188 16.425C261.188 16.425 263.815 10.825 259.923 8.525C255.934 6.225 254.28 10.125 252.14 9.425C250.388 8.825 250.486 7.425 249.61 6.625C249.221 7.325 248.734 8.025 247.956 8.625C244.842 10.725 241.242 11.925 238.323 14.225C237.74 14.725 236.961 14.925 236.28 14.925C235.599 15.325 234.918 15.525 234.14 15.525C235.599 17.525 237.934 18.525 242.313 17.625C246.886 16.625 248.15 18.625 248.248 22.125C248.345 25.625 249.707 26.925 249.707 26.925C249.707 26.925 252.821 24.925 253.405 28.825C253.988 32.725 250.875 34.125 250.875 34.125C250.875 34.125 250.875 35.625 250.388 38.625C249.902 41.725 250.194 42.025 252.723 41.325C256.032 40.325 258.756 38.825 260.604 36.125C262.453 33.525 262.55 30.725 261.091 30.025C260.896 29.725 268.875 23.125 267.221 19.125Z"
    fill="#0C232B" />
  <path
    d="M239.882 143.625C242.8 128.125 294.563 112.525 286.195 178.325C284.249 193.425 276.757 250.325 270.433 260.525C267.903 264.525 256.13 269.125 255.06 267.625C254.087 266.225 252.044 263.525 250.195 259.325C244.552 246.025 245.622 222.925 243.384 207.725C241.536 194.925 236.476 161.425 239.882 143.625Z"
    fill="#015198" />
  <path
    d="M207.871 167.826C211.665 152.626 213.709 140.526 221.979 133.926L267.709 141.126C272.087 160.526 254.282 176.126 241.536 210.726C239.298 216.726 233.46 241.326 230.152 254.926C226.941 268.226 215.655 272.126 210.206 269.926C201.255 266.426 200.963 256.426 200.768 254.526C198.919 234.826 204.563 181.126 207.871 167.826Z"
    fill="#005DAF" />
  <path
    d="M261.967 73.2257C257.394 65.6257 261.286 45.7257 261.286 45.7257C272.475 39.6257 285.999 56.0257 290.767 66.7257C301.275 83.9257 305.945 100.226 306.918 105.326C307.891 110.726 303.902 121.926 301.372 120.626C296.799 118.326 276.269 90.3257 264.01 85.9257L261.967 73.2257Z"
    fill="#005DAF" />
  <path
    d="M228.986 45.2246C228.986 45.2246 255.645 55.1246 249.418 60.6246L231.71 74.7246C231.71 74.7246 231.613 74.7246 231.613 74.8246C217.602 87.3246 192.888 96.7246 188.023 97.2246C185.396 97.5246 179.948 85.2246 187.537 79.6246C194.834 74.8246 218.672 52.3246 228.986 45.2246Z"
    fill="#015198" />
  <path
    d="M244.358 50.225C246.985 49.725 249.515 48.225 251.753 46.125L251.558 48.525L246.402 58.825L241.829 50.425C242.704 50.425 243.483 50.425 244.358 50.225Z"
    fill="#C080B1" />
  <path
    d="M133.732 90.2253L133.83 87.3253C133.927 84.4253 136.554 82.1253 139.57 82.2253C176.057 83.5253 187.441 79.3253 187.441 79.3253C210.305 75.9253 196.003 99.0253 183.646 98.0253C183.646 98.0253 143.559 96.8253 137.916 95.6253C135.386 95.0253 133.538 92.8253 133.732 90.2253Z"
    fill="#015198" />
  <path
    d="M240.952 41.7246C238.617 41.7246 229.277 49.6246 224.315 65.2246C220.033 78.6246 217.017 113.625 216.142 138.025C215.947 144.525 230.347 144.825 246.596 144.725C261.871 144.625 285.223 143.925 285.515 138.125C286.001 126.225 272.379 62.9246 270.531 52.9246C261.969 41.0246 252.92 43.0246 251.947 42.6246L240.952 41.7246Z"
    fill="#005DAF" />
  <path
    d="M240.561 45.3258C240.561 45.3258 249.123 51.1258 255.545 43.6258L253.794 37.5258L253.696 31.4258L238.518 36.4258C238.518 36.4258 241.145 38.7258 240.561 45.3258Z"
    fill="#F0A5A6" />
  <path
    d="M249.026 38.325C247.859 40.325 246.302 44.025 244.161 44.925C243.091 45.425 241.826 45.525 240.659 45.025C239.977 40.425 238.518 36.525 238.518 36.525L252.14 31.625C251.459 33.925 250.291 36.125 249.026 38.325Z"
    fill="#CC7F7F" />
  <path
    d="M235.213 14.7254C230.446 30.9254 235.992 38.5254 238.521 39.2254C243.873 40.6254 253.7 34.2254 256.035 27.3254C258.467 20.4254 255.84 13.1254 250.294 11.1254C244.748 9.1254 237.257 7.7254 235.213 14.7254Z"
    fill="#F0A5A6" />
  <path
    d="M285.999 132.325C285.221 125.925 284.248 119.525 283.08 113.225C281.815 106.625 281.621 104.825 280.064 98.3246C275.978 92.3246 272.086 86.1246 268.68 84.2246C261.772 82.4246 260.215 59.0246 262.064 54.2246C262.94 51.9246 263.815 49.3246 265.08 47.2246C265.664 46.2246 267.124 45.2246 267.026 43.8246C266.832 41.7246 264.205 41.8246 262.453 42.0246C262.356 42.0246 262.356 42.0246 262.259 42.0246C259.048 41.6246 257.005 43.7246 255.837 46.5246C254.864 49.0246 254.086 51.7246 253.405 54.3246C252.626 57.7246 252.432 61.6246 251.264 64.9246C250.097 68.0246 248.345 68.4246 245.426 68.7246C243.772 68.9246 242.021 69.0246 240.367 69.0246C237.059 69.0246 230.929 69.3246 230.929 64.6246C230.832 57.9246 233.361 50.5246 236.28 44.6246C236.767 43.7246 235.794 42.8246 235.113 43.0246C234.237 42.5246 232.972 42.6246 231.902 42.8246C230.832 42.9246 229.47 43.0246 228.594 43.7246C227.816 44.2246 227.524 45.1246 227.232 46.0246C227.232 46.1246 227.232 46.2246 227.232 46.2246C225.675 49.6246 224.41 51.9246 223.437 55.6246C222.951 57.5246 222.561 60.6246 222.27 62.5246C221.783 65.7246 222.756 82.4246 218.961 83.8246C216.724 84.7246 214.583 92.0246 213.707 103.625C213.124 111.125 210.983 148.925 210.789 155.425C210.691 158.025 245.815 152.525 253.015 152.625C262.842 152.725 286.291 163.925 287.167 159.525C288.821 150.225 286.68 137.625 285.999 132.325Z"
    fill="#005DAF" />
  <path
    d="M287.071 159.425C288.822 150.225 286.682 137.625 286.098 132.325C285.32 125.925 284.347 119.525 283.179 113.225C281.914 106.625 281.72 104.825 280.163 98.3252C276.076 92.3252 272.184 86.1252 268.779 84.2252C268.487 84.1252 268.098 84.0252 267.806 83.8252C267.417 94.6252 267.125 105.425 264.984 116.025C263.136 125.125 259.244 133.525 255.157 141.725C260.801 146.425 263.428 155.325 266.249 161.725C271.212 173.025 275.103 184.825 278.509 196.725C279.774 201.225 280.844 205.725 281.72 210.325C283.763 196.725 285.417 184.225 286.195 178.325C287.071 171.225 287.266 165.125 286.974 159.825C286.974 159.625 287.071 159.525 287.071 159.425Z"
    fill="#015198" />
  <path
    d="M591.903 331.426C570.011 332.126 546.076 334.526 520.974 337.126C476.509 341.626 430.584 346.426 394.293 341.026C354.206 335.126 332.898 318.226 327.157 287.826C316.552 231.726 297.287 189.526 269.655 162.626C243.774 137.326 217.017 132.026 203.298 131.126C201.157 131.026 198.822 130.926 196.293 130.826C175.957 130.126 145.211 129.026 129.547 95.3259C118.747 67.6259 104.833 50.1259 88.2925 43.4259C75.2547 38.1259 65.4276 41.8259 64.9412 42.0259L68.152 50.6259C68.4439 50.5259 98.2169 39.7259 121.276 98.9259L121.374 99.2259C139.374 138.126 174.79 139.326 196.001 140.126C198.433 140.226 200.768 140.326 202.811 140.426C215.266 141.226 239.784 146.126 263.525 169.426C289.698 195.026 308.184 235.526 318.401 289.726C324.822 324.026 349.341 343.926 393.028 350.326C404.995 352.126 417.838 352.826 431.266 352.826C459.968 352.826 491.201 349.626 521.849 346.526C546.66 344.026 570.401 341.526 591.903 340.826V331.426Z"
    fill="#005DAF" />
  <path
    d="M249.223 144.626C249.223 144.626 253.796 142.626 254.477 142.726C254.672 142.726 256.423 142.326 257.494 145.426C257.883 146.526 258.077 147.926 257.299 148.826C256.813 149.326 254.477 149.926 253.018 150.626C253.018 151.426 252.921 151.826 252.629 152.326C251.85 153.726 251.169 154.426 249.321 155.526C247.472 156.626 245.04 158.426 242.802 158.526C240.661 158.626 240.856 157.326 240.856 157.326C240.856 157.326 240.077 157.626 239.299 157.026C238.618 156.426 238.618 155.426 238.618 155.426C238.618 155.426 237.548 155.326 236.964 154.826C236.38 154.226 236.477 153.226 236.477 153.226C236.477 153.226 235.213 153.626 234.629 152.626C234.045 151.626 235.504 149.826 235.991 149.426C236.477 149.026 237.45 148.226 237.45 148.226C237.45 148.226 235.407 147.126 235.991 146.426C236.283 146.026 238.813 145.526 240.175 144.026C241.829 142.426 244.359 142.726 245.137 143.026C247.18 143.426 249.223 144.626 249.223 144.626Z"
    fill="#F0A5A6" />
  <path
    d="M254.574 149.825L251.753 144.725C250.78 143.025 251.266 140.925 252.726 140.125C256.618 138.125 263.039 134.425 269.072 129.925C272.866 127.025 282.499 118.325 288.531 105.125C290.769 100.225 307.115 108.525 306.92 110.025C305.364 121.725 292.034 136.525 283.861 140.525L277.828 143.525H277.731C270.337 147.225 262.65 150.325 258.174 151.625C256.91 151.925 255.353 151.225 254.574 149.825Z"
    fill="#005DAF" />
  <path
    d="M64.844 53.3251L81.7736 50.9251C83.525 50.7251 84.8871 48.2251 84.8871 45.3251C84.8871 42.5251 83.525 40.0251 81.7736 39.7251L64.844 37.3251C60.8548 36.7251 57.1575 40.3251 57.1575 45.2251C57.1575 50.3251 60.8548 53.9251 64.844 53.3251Z"
    fill="#999999" />
  <path
    d="M68.3443 37.9248L64.9389 37.4248C60.9497 36.8248 57.2524 40.4248 57.2524 45.3248C57.2524 50.3248 60.9497 53.8248 64.9389 53.2248L68.3443 52.8248V37.9248Z"
    fill="#CCCCCC" />
  <path
    d="M23.4926 67.2254H53.6547C59.0061 67.2254 63.2871 62.7254 63.2871 57.3254V33.4254C63.2871 27.9254 58.9088 23.5254 53.6547 23.5254H23.4926C18.1412 23.5254 13.8601 28.0254 13.8601 33.4254V57.3254C13.8601 62.8254 18.1412 67.2254 23.4926 67.2254Z"
    fill="url(#paint0_linear)" />
  <path
    d="M5.29724 71.7254H26.7026C29.427 71.7254 31.5675 69.4254 31.5675 66.7254V24.0254C31.5675 21.2254 29.3297 19.0254 26.7026 19.0254H5.29724C2.57291 19.0254 0.432373 21.3254 0.432373 24.0254V66.7254C0.432373 69.5254 2.57291 71.7254 5.29724 71.7254Z"
    fill="#999999" />
  <path
    d="M26.7019 19.0254H21.5452V71.8254H26.7019C29.4262 71.8254 31.5667 69.5254 31.5667 66.8254V24.0254C31.664 21.2254 29.4262 19.0254 26.7019 19.0254Z"
    fill="#808080" />
  <path
    d="M28.2579 76.4252H32.3444C33.8039 76.4252 34.9714 75.2252 34.9714 73.7252V17.0252C34.9714 15.5252 33.8039 14.3252 32.3444 14.3252H28.2579C26.7984 14.3252 25.6309 15.5252 25.6309 17.0252V73.8252C25.7282 75.2252 26.8957 76.4252 28.2579 76.4252Z"
    fill="#BBBDBF" />
  <path
    d="M54.3358 34.425H38.5737C38.0872 34.425 37.698 34.025 37.698 33.525C37.698 33.025 38.0872 32.625 38.5737 32.625H54.3358C54.8223 32.625 55.2115 33.025 55.2115 33.525C55.2115 34.025 54.8223 34.425 54.3358 34.425Z"
    fill="#999999" />
  <path
    d="M54.3358 39.2248H38.5737C38.0872 39.2248 37.698 38.8248 37.698 38.3248C37.698 37.8248 38.0872 37.4248 38.5737 37.4248H54.3358C54.8223 37.4248 55.2115 37.8248 55.2115 38.3248C55.2115 38.8248 54.8223 39.2248 54.3358 39.2248Z"
    fill="#999999" />
  <path
    d="M54.3358 43.925H38.5737C38.0872 43.925 37.698 43.525 37.698 43.025C37.698 42.525 38.0872 42.125 38.5737 42.125H54.3358C54.8223 42.125 55.2115 42.525 55.2115 43.025C55.2115 43.525 54.8223 43.925 54.3358 43.925Z"
    fill="#999999" />
  <path
    d="M54.3358 48.7248H38.5737C38.0872 48.7248 37.698 48.3248 37.698 47.8248C37.698 47.3248 38.0872 46.9248 38.5737 46.9248H54.3358C54.8223 46.9248 55.2115 47.3248 55.2115 47.8248C55.2115 48.2248 54.8223 48.7248 54.3358 48.7248Z"
    fill="#999999" />
  <path
    d="M54.3358 53.425H38.5737C38.0872 53.425 37.698 53.025 37.698 52.525C37.698 52.025 38.0872 51.625 38.5737 51.625H54.3358C54.8223 51.625 55.2115 52.025 55.2115 52.525C55.2115 53.025 54.8223 53.425 54.3358 53.425Z"
    fill="#999999" />
  <path
    d="M54.3358 58.1252H38.5737C38.0872 58.1252 37.698 57.7252 37.698 57.2252C37.698 56.7252 38.0872 56.3252 38.5737 56.3252H54.3358C54.8223 56.3252 55.2115 56.7252 55.2115 57.2252C55.2115 57.7252 54.8223 58.1252 54.3358 58.1252Z"
    fill="#999999" />
  <path
    d="M122.348 95.6256C122.932 95.0256 123.321 94.2256 123.224 93.4256C123.029 92.5256 122.543 92.2256 121.862 92.2256C122.445 91.5256 122.737 90.7256 122.348 89.8256C121.959 88.8256 121.278 88.6256 120.402 88.7256C120.597 88.3256 120.694 87.9256 120.597 87.5256C120.499 86.7256 119.818 86.3256 119.137 86.2256C116.705 85.7256 114.759 88.0256 113.786 90.0256C113.689 90.2256 113.786 90.4256 113.883 90.5256C113.883 90.6256 113.98 90.7256 114.078 90.7256C116.316 91.8256 117.581 94.4256 118.845 96.5256C119.526 97.7256 119.818 99.1256 121.278 98.7256C123.418 98.1256 123.71 95.9256 122.348 95.6256Z"
    fill="#F0A5A6" />
  <path
    d="M255.059 11.5254C254.378 12.2254 253.795 13.0254 253.211 14.0254C252.432 15.3254 251.654 14.5254 250.973 16.0254C251.265 16.2254 251.167 18.7254 251.459 18.9254C252.627 19.9254 253.697 21.4254 253.697 21.4254C254.573 15.9254 257.2 20.5254 257.394 22.2254C257.589 23.9254 255.643 26.8254 257.005 26.8254C258.368 26.8254 259.632 22.3254 259.632 22.3254C259.34 15.0254 257.881 15.2254 256.13 12.6254C256.032 12.2254 255.546 11.8254 255.059 11.5254Z"
    fill="#0C232B" />
  <path
    d="M252.921 19.9252C252.532 20.1252 250.781 15.3252 250.391 15.3252C250.683 16.2252 252.045 22.6252 252.435 23.9252C253.018 26.0252 254.283 26.2252 254.381 25.9252C254.478 25.4252 254.089 24.9252 253.991 24.4252C253.699 23.4252 253.894 22.2252 253.797 21.2252C253.797 21.0252 253.505 19.6252 253.505 19.6252C253.31 19.7252 253.116 19.8252 252.921 19.9252Z"
    fill="#0C232B" />
  <path
    d="M235.601 15.725C236.185 16.025 236.671 16.325 237.352 16.525H265.082C265.471 11.425 262.455 5.62503 258.563 3.02503C253.212 -0.574964 244.455 -0.674963 239.395 1.22504C236.087 2.42503 229.763 13.225 235.601 15.725Z"
    fill="#00FFF0" />
  <path
    d="M235.019 16.5254H250.878C250.781 14.9254 247.667 14.1254 246.208 13.7254C239.494 11.8254 232.684 9.92539 225.97 7.92539C223.732 7.32539 221.397 6.62539 219.159 6.52539C218.673 6.52539 218.089 6.52539 217.7 6.82539C216.921 7.32539 216.824 8.62539 217.213 9.42539C217.603 10.3254 218.381 10.9254 219.159 11.4254C223.538 14.4254 227.624 16.7254 232.781 16.5254C232.975 16.6254 234.435 16.4254 235.019 16.5254Z"
    fill="#00E6D8" />
  <defs>
    <filter id="filter0_f" x="147.883" y="318.426" width="218.054" height="65" filterUnits="userSpaceOnUse"
      color-interpolation-filters="sRGB">
      <feFlood flood-opacity="0" result="BackgroundImageFix" />
      <feBlend mode="normal" in="SourceGraphic" in2="BackgroundImageFix" result="shape" />
      <feGaussianBlur stdDeviation="10" result="effect1_foregroundBlur" />
    </filter>
    <linearGradient id="paint0_linear" x1="13.819" y1="45.3824" x2="63.3666" y2="45.3824"
      gradientUnits="userSpaceOnUse">
      <stop offset="0.1983" stop-color="#666666" />
      <stop offset="0.5698" stop-color="#CCCCCC" />
    </linearGradient>
  </defs>
</svg>
